G04*
G04 #@! TF.GenerationSoftware,Altium Limited,Altium Designer,19.1.8 (144)*
G04*
G04 Layer_Color=128*
%FSLAX25Y25*%
%MOIN*%
G70*
G01*
G75*
%ADD81C,0.00200*%
D81*
X180728Y199500D02*
X184272D01*
X182500Y197728D02*
Y201272D01*
X180728Y189500D02*
X184272D01*
X182500Y187728D02*
Y191272D01*
X180728Y179500D02*
X184272D01*
X182500Y177728D02*
Y181272D01*
X180728Y169500D02*
X184272D01*
X182500Y167728D02*
Y171272D01*
X336728Y108500D02*
X340272D01*
X338500Y106728D02*
Y110272D01*
X326728Y108500D02*
X330272D01*
X328500Y106728D02*
Y110272D01*
X336728Y118500D02*
X340272D01*
X338500Y116728D02*
Y120272D01*
X326728Y118500D02*
X330272D01*
X328500Y116728D02*
Y120272D01*
X336728Y128500D02*
X340272D01*
X338500Y126728D02*
Y130272D01*
X326728Y128500D02*
X330272D01*
X328500Y126728D02*
Y130272D01*
X336728Y138500D02*
X340272D01*
X338500Y136728D02*
Y140272D01*
X326728Y138500D02*
X330272D01*
X328500Y136728D02*
Y140272D01*
X218228Y338000D02*
X221772D01*
X220000Y336228D02*
Y339772D01*
X218228Y348000D02*
X221772D01*
X220000Y346228D02*
Y349772D01*
X95291Y307559D02*
X104701D01*
X99996Y302854D02*
Y312264D01*
X30213Y274764D02*
X43795D01*
X37004Y267972D02*
Y281555D01*
X93205Y57441D02*
X106787D01*
X99996Y50650D02*
Y64232D01*
X375700Y356000D02*
X386300D01*
X381000Y350700D02*
Y361300D01*
X375728Y342500D02*
X379272D01*
X377500Y340728D02*
Y344272D01*
X375728Y332500D02*
X379272D01*
X377500Y330728D02*
Y334272D01*
X375728Y322500D02*
X379272D01*
X377500Y320728D02*
Y324272D01*
X375728Y312500D02*
X379272D01*
X377500Y310728D02*
Y314272D01*
X375728Y292500D02*
X379272D01*
X377500Y290728D02*
Y294272D01*
X375728Y282500D02*
X379272D01*
X377500Y280728D02*
Y284272D01*
X375728Y302500D02*
X379272D01*
X377500Y300728D02*
Y304272D01*
X230728Y248000D02*
X234272D01*
X232500Y246228D02*
Y249772D01*
X230728Y238000D02*
X234272D01*
X232500Y236228D02*
Y239772D01*
X242728Y232000D02*
X246272D01*
X244500Y230228D02*
Y233772D01*
X242728Y222000D02*
X246272D01*
X244500Y220228D02*
Y223772D01*
X366200Y145000D02*
X376800D01*
X371500Y139700D02*
Y150300D01*
X370700Y18000D02*
X381300D01*
X376000Y12700D02*
Y23300D01*
X127200Y14500D02*
X137800D01*
X132500Y9200D02*
Y19800D01*
X120200Y273000D02*
X130800D01*
X125500Y267700D02*
Y278300D01*
X180728Y242000D02*
X184272D01*
X182500Y240228D02*
Y243772D01*
X180728Y232000D02*
X184272D01*
X182500Y230228D02*
Y233772D01*
X180728Y222000D02*
X184272D01*
X182500Y220228D02*
Y223772D01*
X180728Y212000D02*
X184272D01*
X182500Y210228D02*
Y213772D01*
X263228Y97000D02*
X266772D01*
X265000Y95228D02*
Y98772D01*
X253228Y97000D02*
X256772D01*
X255000Y95228D02*
Y98772D01*
X243228Y97000D02*
X246772D01*
X245000Y95228D02*
Y98772D01*
X233228Y97000D02*
X236772D01*
X235000Y95228D02*
Y98772D01*
X255728Y242000D02*
X259272D01*
X257500Y240228D02*
Y243772D01*
X255728Y252000D02*
X259272D01*
X257500Y250228D02*
Y253772D01*
X336728Y244000D02*
X340272D01*
X338500Y242228D02*
Y245772D01*
X336728Y234000D02*
X340272D01*
X338500Y232228D02*
Y235772D01*
X336728Y224000D02*
X340272D01*
X338500Y222228D02*
Y225772D01*
X336728Y214000D02*
X340272D01*
X338500Y212228D02*
Y215772D01*
X336728Y156500D02*
X340272D01*
X338500Y154728D02*
Y158272D01*
X336728Y166500D02*
X340272D01*
X338500Y164728D02*
Y168272D01*
X336728Y176500D02*
X340272D01*
X338500Y174728D02*
Y178272D01*
X336728Y186500D02*
X340272D01*
X338500Y184728D02*
Y188272D01*
X10200Y12500D02*
X20800D01*
X15500Y7200D02*
Y17800D01*
X9200Y356500D02*
X19800D01*
X14500Y351200D02*
Y361800D01*
X208799Y107929D02*
X212343D01*
X210571Y106157D02*
Y109701D01*
X201728Y115000D02*
X205272D01*
X203500Y113228D02*
Y116772D01*
X379400Y86000D02*
X380600D01*
X380000Y85400D02*
Y86600D01*
X178900Y144000D02*
X180100D01*
X179500Y143400D02*
Y144600D01*
X286500Y109000D02*
X288500D01*
X287500Y108000D02*
Y110000D01*
X360400Y82500D02*
X361600D01*
X361000Y81900D02*
Y83100D01*
X378400Y115500D02*
X379600D01*
X379000Y114900D02*
Y116100D01*
X179400Y137000D02*
X180600D01*
X180000Y136400D02*
Y137600D01*
X269400Y166500D02*
X270600D01*
X270000Y165900D02*
Y167100D01*
X258900Y117000D02*
X260100D01*
X259500Y116400D02*
Y117600D01*
X229400Y114000D02*
X230600D01*
X230000Y113400D02*
Y114600D01*
X209100Y171000D02*
X211900D01*
X210500Y169600D02*
Y172400D01*
X204250Y310000D02*
X205750D01*
X205000Y309250D02*
Y310750D01*
X214500Y221000D02*
X216500D01*
X215500Y220000D02*
Y222000D01*
X351500Y175000D02*
X353500D01*
X352500Y174000D02*
Y176000D01*
X386400Y248000D02*
X387600D01*
X387000Y247400D02*
Y248600D01*
X261900Y334000D02*
X263100D01*
X262500Y333400D02*
Y334600D01*
X206500Y338500D02*
X208500D01*
X207500Y337500D02*
Y339500D01*
X200500Y338500D02*
X202500D01*
X201500Y337500D02*
Y339500D01*
X198900Y213500D02*
X200100D01*
X199500Y212900D02*
Y214100D01*
X384400Y115000D02*
X385600D01*
X385000Y114400D02*
Y115600D01*
X220000Y109000D02*
X222000D01*
X221000Y108000D02*
Y110000D01*
X77250Y16667D02*
X78750D01*
X78000Y15917D02*
Y17417D01*
X64583Y16667D02*
X66083D01*
X65333Y15917D02*
Y17417D01*
X77250Y23833D02*
X78750D01*
X78000Y23083D02*
Y24583D01*
X70917Y23833D02*
X72417D01*
X71667Y23083D02*
Y24583D01*
X64583Y23833D02*
X66083D01*
X65333Y23083D02*
Y24583D01*
X58250Y23833D02*
X59750D01*
X59000Y23083D02*
Y24583D01*
X58250Y31500D02*
X59750D01*
X59000Y30750D02*
Y32250D01*
X64583Y31500D02*
X66083D01*
X65333Y30750D02*
Y32250D01*
X70917Y31500D02*
X72417D01*
X71667Y30750D02*
Y32250D01*
X77250Y31500D02*
X78750D01*
X78000Y30750D02*
Y32250D01*
X70917Y16667D02*
X72417D01*
X71667Y15917D02*
Y17417D01*
X58250Y16667D02*
X59750D01*
X59000Y15917D02*
Y17417D01*
X77250Y39167D02*
X78750D01*
X78000Y38417D02*
Y39917D01*
X70917Y39167D02*
X72417D01*
X71667Y38417D02*
Y39917D01*
X64583Y39167D02*
X66083D01*
X65333Y38417D02*
Y39917D01*
X58250Y39167D02*
X59750D01*
X59000Y38417D02*
Y39917D01*
X358400Y297000D02*
X359600D01*
X359000Y296400D02*
Y297600D01*
X353900Y303000D02*
X355100D01*
X354500Y302400D02*
Y303600D01*
X253900Y187500D02*
X255100D01*
X254500Y186900D02*
Y188100D01*
X252900Y179000D02*
X254100D01*
X253500Y178400D02*
Y179600D01*
X207400Y130000D02*
X208600D01*
X208000Y129400D02*
Y130600D01*
X202400Y130500D02*
X203600D01*
X203000Y129900D02*
Y131100D01*
X364400Y109500D02*
X365600D01*
X365000Y108900D02*
Y110100D01*
X368400Y107500D02*
X369600D01*
X369000Y106900D02*
Y108100D01*
X227900Y178000D02*
X229100D01*
X228500Y177400D02*
Y178600D01*
X232400Y185500D02*
X233600D01*
X233000Y184900D02*
Y186100D01*
X229900Y182000D02*
X231100D01*
X230500Y181400D02*
Y182600D01*
X221445Y220945D02*
X223445D01*
X222445Y219945D02*
Y221945D01*
X318400Y307500D02*
X319600D01*
X319000Y306900D02*
Y308100D01*
X318400Y312500D02*
X319600D01*
X319000Y311900D02*
Y313100D01*
X318400Y317500D02*
X319600D01*
X319000Y316900D02*
Y318100D01*
X306400Y312500D02*
X307600D01*
X307000Y311900D02*
Y313100D01*
X306400Y317500D02*
X307600D01*
X307000Y316900D02*
Y318100D01*
X306400Y307500D02*
X307600D01*
X307000Y306900D02*
Y308100D01*
X314400Y307500D02*
X315600D01*
X315000Y306900D02*
Y308100D01*
X314400Y312500D02*
X315600D01*
X315000Y311900D02*
Y313100D01*
X314400Y317500D02*
X315600D01*
X315000Y316900D02*
Y318100D01*
X310400Y307500D02*
X311600D01*
X311000Y306900D02*
Y308100D01*
X310400Y312500D02*
X311600D01*
X311000Y311900D02*
Y313100D01*
X310400Y317500D02*
X311600D01*
X311000Y316900D02*
Y318100D01*
X361400Y131000D02*
X362600D01*
X362000Y130400D02*
Y131600D01*
X356400Y116000D02*
X357600D01*
X357000Y115400D02*
Y116600D01*
X194500Y92500D02*
X196500D01*
X195500Y91500D02*
Y93500D01*
X354500Y204500D02*
X356500D01*
X355500Y203500D02*
Y205500D01*
X176100Y252500D02*
X178900D01*
X177500Y251100D02*
Y253900D01*
X255900Y112500D02*
X257100D01*
X256500Y111900D02*
Y113100D01*
X372900Y109500D02*
X374100D01*
X373500Y108900D02*
Y110100D01*
X164400Y136000D02*
X165600D01*
X165000Y135400D02*
Y136600D01*
X265500Y280000D02*
X267500D01*
X266500Y279000D02*
Y281000D01*
X317900Y248000D02*
X319100D01*
X318500Y247400D02*
Y248600D01*
X247500Y275000D02*
X249500D01*
X248500Y274000D02*
Y276000D01*
M02*
