G04*
G04 #@! TF.GenerationSoftware,Altium Limited,Altium Designer,19.1.8 (144)*
G04*
G04 Layer_Color=255*
%FSLAX25Y25*%
%MOIN*%
G70*
G01*
G75*
%ADD69C,0.05906*%
%ADD70R,0.05906X0.05906*%
%ADD71C,0.14114*%
%ADD72C,0.20374*%
%ADD73C,0.12600*%
%ADD74R,0.05906X0.05906*%
%ADD75P,0.08352X4X360.0*%
D69*
X182500Y199500D02*
D03*
Y189500D02*
D03*
Y179500D02*
D03*
X338500Y108500D02*
D03*
X328500D02*
D03*
X338500Y118500D02*
D03*
X328500D02*
D03*
X338500Y128500D02*
D03*
X328500D02*
D03*
X338500Y138500D02*
D03*
X220000Y338000D02*
D03*
X377500Y342500D02*
D03*
Y332500D02*
D03*
Y322500D02*
D03*
Y312500D02*
D03*
Y292500D02*
D03*
Y302500D02*
D03*
X232500Y238000D02*
D03*
X244500Y222000D02*
D03*
X182500Y242000D02*
D03*
Y232000D02*
D03*
Y222000D02*
D03*
X265000Y97000D02*
D03*
X255000D02*
D03*
X245000D02*
D03*
X257500Y252000D02*
D03*
X338500Y234000D02*
D03*
Y224000D02*
D03*
Y214000D02*
D03*
Y156500D02*
D03*
Y166500D02*
D03*
Y176500D02*
D03*
X210571Y107929D02*
D03*
D70*
X182500Y169500D02*
D03*
X328500Y138500D02*
D03*
X220000Y348000D02*
D03*
X377500Y282500D02*
D03*
X232500Y248000D02*
D03*
X244500Y232000D02*
D03*
X182500Y212000D02*
D03*
X257500Y242000D02*
D03*
X338500Y244000D02*
D03*
Y186500D02*
D03*
D71*
X99996Y307559D02*
D03*
D72*
X37004Y274764D02*
D03*
X99996Y57441D02*
D03*
D73*
X381000Y356000D02*
D03*
X371500Y145000D02*
D03*
X376000Y18000D02*
D03*
X132500Y14500D02*
D03*
X125500Y273000D02*
D03*
X15500Y12500D02*
D03*
X14500Y356500D02*
D03*
D74*
X235000Y97000D02*
D03*
D75*
X203500Y115000D02*
D03*
M02*
