G04*
G04 #@! TF.GenerationSoftware,Altium Limited,Altium Designer,19.1.8 (144)*
G04*
G04 Layer_Color=16711935*
%FSLAX25Y25*%
%MOIN*%
G70*
G01*
G75*
%ADD10C,0.00787*%
%ADD14C,0.00394*%
%ADD18C,0.00300*%
%ADD81C,0.00100*%
%ADD82C,0.00000*%
D10*
X68492Y149283D02*
X92508Y149284D01*
Y134716D02*
Y149284D01*
X68492Y134717D02*
X92508Y134716D01*
X68492Y134717D02*
Y149283D01*
X-49150Y-132173D02*
X32150D01*
Y171173D01*
X-49150D02*
X32150D01*
X-49150Y-132173D02*
Y171173D01*
X196421Y203370D02*
X267287D01*
Y124630D02*
Y203370D01*
X196421Y124630D02*
X267287D01*
X196421D02*
Y203370D01*
Y179748D02*
X267287D01*
X297906Y-49398D02*
Y-36602D01*
X286094Y-49398D02*
X297906D01*
X286094D02*
Y-36602D01*
X297906D01*
D14*
X218232Y-83756D02*
X218232Y-78244D01*
X209768Y-83756D02*
Y-78244D01*
Y-83756D02*
X218232D01*
X209768Y-78244D02*
X218232D01*
X131059Y153956D02*
X134956Y150059D01*
X137044Y159941D02*
X140941Y156044D01*
X131059Y153956D02*
X137044Y159941D01*
X134956Y150059D02*
X140941Y156044D01*
X154244Y169768D02*
X159756Y169768D01*
X154244Y178232D02*
X159756D01*
X154244Y169768D02*
Y178232D01*
X159756Y169768D02*
Y178232D01*
X94835Y159319D02*
X99165D01*
X94835Y161681D02*
X99165D01*
Y159319D02*
Y161681D01*
X94835Y159319D02*
X94835Y161681D01*
X119744Y35768D02*
X125256Y35768D01*
X119744Y44232D02*
X125256D01*
X119744Y35768D02*
Y44232D01*
X125256Y35768D02*
Y44232D01*
X123681Y179835D02*
Y184165D01*
X121319Y179835D02*
Y184165D01*
X123681D01*
X121319Y179835D02*
X123681D01*
X133181D02*
Y184165D01*
X130819Y179835D02*
Y184165D01*
X133181D01*
X130819Y179835D02*
X133181D01*
X128431D02*
Y184165D01*
X126069Y179835D02*
Y184165D01*
X128431D01*
X126069Y179835D02*
X128431D01*
X142244Y-74732D02*
X147756D01*
X142244Y-66268D02*
X147756D01*
X142244Y-74732D02*
Y-66268D01*
X147756Y-74732D02*
Y-66268D01*
X126835Y-72819D02*
X131165D01*
X126835Y-75181D02*
X131165D01*
X126835D02*
Y-72819D01*
X131165Y-75181D02*
X131165Y-72819D01*
X62744Y170732D02*
X68256Y170732D01*
X62744Y162268D02*
X68256D01*
Y170732D01*
X62744Y162268D02*
Y170732D01*
X303244Y77232D02*
X308756Y77232D01*
X303244Y68768D02*
X308756D01*
Y77232D01*
X303244Y68768D02*
Y77232D01*
X286756Y-7232D02*
Y1232D01*
X281244Y-7232D02*
Y1232D01*
X286756D01*
X281244Y-7232D02*
X286756D01*
X281050Y24232D02*
X286561D01*
X281050Y15768D02*
X286561D01*
Y24232D01*
X281050Y15768D02*
Y24232D01*
X119268Y130744D02*
X119268Y136256D01*
X127732Y130744D02*
Y136256D01*
X119268D02*
X127732D01*
X119268Y130744D02*
X127732D01*
X170256Y120768D02*
Y129232D01*
X164744Y120768D02*
Y129232D01*
X170256D01*
X164744Y120768D02*
X170256D01*
X145315Y2685D02*
X184685D01*
Y-36685D02*
Y2685D01*
X145315Y-36685D02*
X184685D01*
X145315D02*
Y2685D01*
Y717D02*
X147283Y2685D01*
D18*
X102800Y186305D02*
X106132Y182973D01*
X102800D02*
X106132Y186305D01*
X102800Y184639D02*
X106132D01*
X104466Y182973D02*
Y186305D01*
D81*
X110650Y193750D02*
Y199250D01*
X102350Y193750D02*
X110650D01*
X102350D02*
Y199250D01*
X110650D01*
X117200Y194000D02*
Y199000D01*
Y197000D02*
X120200Y196500D01*
X117200Y197500D02*
X120200Y196500D01*
X117200Y198000D02*
X120200Y196500D01*
X117200Y198500D02*
X120200Y196500D01*
X117200Y199000D02*
X120200Y196500D01*
X117200Y196000D02*
X120200Y196500D01*
X117200Y195500D02*
X120200Y196500D01*
X117200Y195000D02*
X120200Y196500D01*
X117200Y194500D02*
X120200Y196500D01*
X117200Y194000D02*
X120200Y196500D01*
Y194000D02*
Y199000D01*
X116200Y196500D02*
X121200D01*
X109950Y185240D02*
X112400D01*
Y183240D02*
Y185240D01*
X109950Y183240D02*
X112400Y183240D01*
X109950Y183240D02*
Y185240D01*
Y177760D02*
X112400Y177760D01*
Y175760D02*
Y177760D01*
X109950Y175760D02*
X112400D01*
X109950D02*
Y177760D01*
X100600Y175760D02*
X103050D01*
X100600D02*
Y177760D01*
X103050Y177760D01*
Y175760D02*
Y177760D01*
X100600Y179500D02*
X103050D01*
X100600D02*
Y181500D01*
X103050D01*
Y179500D02*
Y181500D01*
X100600Y183240D02*
X103050Y183240D01*
X100600Y183240D02*
Y185240D01*
X103050D01*
Y183240D02*
Y185240D01*
Y174500D02*
Y186500D01*
X109950D01*
Y174500D02*
Y186500D01*
X103050Y174500D02*
X109950D01*
X269100Y-86150D02*
Y-75850D01*
Y-86150D02*
X274600D01*
Y-75850D01*
X269100D02*
X274600D01*
X254900Y-86150D02*
Y-75850D01*
X249400D02*
X254900D01*
X249400Y-86150D02*
Y-75850D01*
Y-86150D02*
X254900D01*
X249400Y-75850D02*
X274600D01*
X249400Y-86150D02*
Y-75850D01*
Y-86150D02*
X274600D01*
Y-75850D01*
D82*
X105300Y186500D02*
X105651Y185652D01*
X106500Y185300D01*
X107349Y185652D01*
X107700Y186500D01*
M02*
