G04*
G04 #@! TF.GenerationSoftware,Altium Limited,Altium Designer,19.1.8 (144)*
G04*
G04 Layer_Color=12632256*
%FSLAX25Y25*%
%MOIN*%
G70*
G01*
G75*
%ADD69C,0.05906*%
%ADD70R,0.05906X0.05906*%
%ADD71C,0.14114*%
%ADD72C,0.20374*%
%ADD73C,0.12600*%
%ADD74R,0.05906X0.05906*%
%ADD75P,0.08352X4X360.0*%
D69*
X105500Y36500D02*
D03*
Y26500D02*
D03*
Y16500D02*
D03*
X261500Y-54500D02*
D03*
X251500D02*
D03*
X261500Y-44500D02*
D03*
X251500D02*
D03*
X261500Y-34500D02*
D03*
X251500D02*
D03*
X261500Y-24500D02*
D03*
X143000Y175000D02*
D03*
X300500Y179500D02*
D03*
Y169500D02*
D03*
Y159500D02*
D03*
Y149500D02*
D03*
Y129500D02*
D03*
Y139500D02*
D03*
X155500Y75000D02*
D03*
X167500Y59000D02*
D03*
X105500Y79000D02*
D03*
Y69000D02*
D03*
Y59000D02*
D03*
X188000Y-66000D02*
D03*
X178000D02*
D03*
X168000D02*
D03*
X180500Y89000D02*
D03*
X261500Y71000D02*
D03*
Y61000D02*
D03*
Y51000D02*
D03*
Y-6500D02*
D03*
Y3500D02*
D03*
Y13500D02*
D03*
X133571Y-55071D02*
D03*
D70*
X105500Y6500D02*
D03*
X251500Y-24500D02*
D03*
X143000Y185000D02*
D03*
X300500Y119500D02*
D03*
X155500Y85000D02*
D03*
X167500Y69000D02*
D03*
X105500Y49000D02*
D03*
X180500Y79000D02*
D03*
X261500Y81000D02*
D03*
Y23500D02*
D03*
D71*
X22996Y144559D02*
D03*
D72*
X-39996Y111764D02*
D03*
X22996Y-105559D02*
D03*
D73*
X304000Y193000D02*
D03*
X294500Y-18000D02*
D03*
X299000Y-145000D02*
D03*
X55500Y-148500D02*
D03*
X48500Y110000D02*
D03*
X-61500Y-150500D02*
D03*
X-62500Y193500D02*
D03*
D74*
X158000Y-66000D02*
D03*
D75*
X126500Y-48000D02*
D03*
M02*
