M48
;Layer_Color=9474304
;FILE_FORMAT=2:5
INCH,LZ
;TYPE=PLATED
T1F00S00C0.01200
T2F00S00C0.01500
T3F00S00C0.01500
T4F00S00C0.02000
T5F00S00C0.02800
T6F00S00C0.03543
T7F00S00C0.09409
T8F00S00C0.13583
%
T01
X0361Y00825
X038Y0086
X03735Y01095
X0369Y01075
X0365Y01095
X0357Y0116
X0362Y0131
X0379Y01155
X0385Y0115
X02595Y0117
X02565Y01125
X023Y0114
X0208Y013
X0203Y01305
X018Y0137
X01795Y0144
X0165Y0136
X02285Y0178
X027Y01665
X02535Y0179
X02545Y01875
X0233Y01855
X02305Y0182
X01995Y02135
X02625Y0334
X0307Y03175
X0311
X0315
Y03125
X0311
X0307
Y03075
X0311
X0315
X0319
Y03125
Y03175
X03545Y0303
X0359Y0297
X0387Y0248
X03185
T02
X0059Y0016667
X0065333
X0071667
X0078
Y0023833
X0071667
X0065333
X0059
Y00315
X0065333
X0071667
X0078
T03
X0059Y0039167
X0065333Y0039167
X0071667
X0078
X0205Y031
T04
X03525Y0175
X02875Y0109
X0221
X01955Y00925
X02155Y0221
X0222445Y0220945
X02485Y0275
X02665Y028
X03555Y02045
X02075Y03385
X02015
T05
X02105Y0171
X01775Y02525
T06
X03285Y01085
X03385
Y01185
X03285
Y01285
X03385
Y01385
X03285Y01385
X03385Y01565
Y01665
Y01765
X0265Y0097
X0255
X0245
X0235
X0210571Y0107929
X02035Y0115
X01825Y01695
Y01795
Y01895
Y01995
Y0212
Y0222
Y0232
Y0242
X02325Y0238
Y0248
X02445Y0232
Y0222
X02575Y0242
Y0252
X03385Y0244
Y0234
Y0224
Y0214
Y01865
X03775Y02825
Y02925
Y03025
Y03125
Y03225
Y03325
Y03425
X022Y0338
Y0348
T07
X0099996Y0307559
T08
X0099996Y0057441
X0037004Y0274764
M30
