G04*
G04 #@! TF.GenerationSoftware,Altium Limited,Altium Designer,19.1.8 (144)*
G04*
G04 Layer_Physical_Order=2*
G04 Layer_Color=16711680*
%FSLAX25Y25*%
%MOIN*%
G70*
G01*
G75*
%ADD14C,0.01000*%
%ADD67C,0.02000*%
%ADD69C,0.05906*%
%ADD70R,0.05906X0.05906*%
%ADD71C,0.14114*%
%ADD72C,0.20374*%
%ADD73C,0.12600*%
%ADD74R,0.05906X0.05906*%
%ADD75P,0.08352X4X360.0*%
%ADD76C,0.02400*%
%ADD77C,0.04000*%
%ADD78C,0.05000*%
%ADD79C,0.03000*%
%ADD80C,0.05600*%
G36*
X390000Y8153D02*
X389538Y7962D01*
X389000Y8500D01*
X136696D01*
X136517Y9000D01*
X137332Y9668D01*
X138181Y10704D01*
X138813Y11885D01*
X139202Y13167D01*
X139333Y14500D01*
X139202Y15833D01*
X138813Y17115D01*
X138181Y18296D01*
X137332Y19332D01*
X136296Y20181D01*
X135115Y20813D01*
X133833Y21202D01*
X132500Y21333D01*
X131167Y21202D01*
X129885Y20813D01*
X128704Y20181D01*
X127668Y19332D01*
X126819Y18296D01*
X126187Y17115D01*
X125798Y15833D01*
X125667Y14500D01*
X125798Y13167D01*
X126187Y11885D01*
X126819Y10704D01*
X127668Y9668D01*
X128483Y9000D01*
X128304Y8500D01*
X21639D01*
X21340Y9000D01*
X21813Y9885D01*
X22202Y11167D01*
X22333Y12500D01*
X22202Y13833D01*
X21813Y15115D01*
X21181Y16296D01*
X20332Y17332D01*
X19296Y18181D01*
X18115Y18813D01*
X16833Y19202D01*
X15500Y19333D01*
X14167Y19202D01*
X12885Y18813D01*
X11704Y18181D01*
X10668Y17332D01*
X9819Y16296D01*
X9187Y15115D01*
X8798Y13833D01*
X8667Y12500D01*
X8798Y11167D01*
X9187Y9885D01*
X9660Y9000D01*
X9361Y8500D01*
X5500D01*
Y357000D01*
X3500Y359000D01*
X6500Y362000D01*
X9741D01*
X9909Y361529D01*
X9668Y361332D01*
X8819Y360296D01*
X8187Y359115D01*
X7798Y357833D01*
X7667Y356500D01*
X7798Y355167D01*
X8187Y353885D01*
X8819Y352704D01*
X9668Y351668D01*
X10704Y350819D01*
X11885Y350187D01*
X13167Y349798D01*
X14500Y349667D01*
X15833Y349798D01*
X17115Y350187D01*
X18296Y350819D01*
X19332Y351668D01*
X20181Y352704D01*
X20813Y353885D01*
X21202Y355167D01*
X21333Y356500D01*
X21202Y357833D01*
X20813Y359115D01*
X20181Y360296D01*
X19332Y361332D01*
X19091Y361529D01*
X19259Y362000D01*
X245980D01*
Y343000D01*
X246058Y342610D01*
X246279Y342279D01*
X246610Y342058D01*
X247000Y341980D01*
X370000D01*
X370390Y342058D01*
X370721Y342279D01*
X370942Y342610D01*
X371020Y343000D01*
Y362000D01*
X376804D01*
X376983Y361500D01*
X376168Y360832D01*
X375319Y359796D01*
X374687Y358615D01*
X374298Y357333D01*
X374167Y356000D01*
X374298Y354667D01*
X374687Y353385D01*
X375319Y352204D01*
X376168Y351168D01*
X377204Y350319D01*
X378385Y349687D01*
X379667Y349298D01*
X381000Y349167D01*
X382333Y349298D01*
X383615Y349687D01*
X384796Y350319D01*
X385832Y351168D01*
X386681Y352204D01*
X387313Y353385D01*
X387702Y354667D01*
X387833Y356000D01*
X387702Y357333D01*
X387313Y358615D01*
X386681Y359796D01*
X385832Y360832D01*
X385017Y361500D01*
X385196Y362000D01*
X390000D01*
Y8153D01*
D02*
G37*
%LPC*%
G36*
X223453Y351453D02*
X216547D01*
Y344547D01*
X223453D01*
Y351453D01*
D02*
G37*
G36*
X377500Y335982D02*
X376599Y335864D01*
X375759Y335516D01*
X375038Y334963D01*
X374484Y334241D01*
X374136Y333401D01*
X374018Y332500D01*
X374136Y331599D01*
X374484Y330759D01*
X375038Y330037D01*
X375759Y329484D01*
X376599Y329136D01*
X377500Y329017D01*
X378401Y329136D01*
X379241Y329484D01*
X379962Y330037D01*
X380516Y330759D01*
X380864Y331599D01*
X380982Y332500D01*
X380864Y333401D01*
X380516Y334241D01*
X379962Y334963D01*
X379241Y335516D01*
X378401Y335864D01*
X377500Y335982D01*
D02*
G37*
G36*
Y325982D02*
X376599Y325864D01*
X375759Y325516D01*
X375038Y324962D01*
X374484Y324241D01*
X374136Y323401D01*
X374018Y322500D01*
X374136Y321599D01*
X374484Y320759D01*
X375038Y320038D01*
X375759Y319484D01*
X376599Y319136D01*
X377500Y319018D01*
X378401Y319136D01*
X379241Y319484D01*
X379962Y320038D01*
X380516Y320759D01*
X380864Y321599D01*
X380982Y322500D01*
X380864Y323401D01*
X380516Y324241D01*
X379962Y324962D01*
X379241Y325516D01*
X378401Y325864D01*
X377500Y325982D01*
D02*
G37*
G36*
Y315983D02*
X376599Y315864D01*
X375759Y315516D01*
X375038Y314963D01*
X374484Y314241D01*
X374136Y313401D01*
X374018Y312500D01*
X374136Y311599D01*
X374484Y310759D01*
X375038Y310037D01*
X375759Y309484D01*
X376599Y309136D01*
X377500Y309017D01*
X378401Y309136D01*
X379241Y309484D01*
X379962Y310037D01*
X380516Y310759D01*
X380864Y311599D01*
X380982Y312500D01*
X380864Y313401D01*
X380516Y314241D01*
X379962Y314963D01*
X379241Y315516D01*
X378401Y315864D01*
X377500Y315983D01*
D02*
G37*
G36*
X99996Y315153D02*
X98515Y315007D01*
X97090Y314575D01*
X95777Y313873D01*
X94626Y312929D01*
X93682Y311778D01*
X92980Y310465D01*
X92548Y309040D01*
X92402Y307559D01*
X92548Y306078D01*
X92980Y304653D01*
X93682Y303340D01*
X94626Y302189D01*
X95777Y301245D01*
X97090Y300543D01*
X98515Y300111D01*
X99996Y299965D01*
X101478Y300111D01*
X102902Y300543D01*
X104215Y301245D01*
X105366Y302189D01*
X106310Y303340D01*
X107012Y304653D01*
X107444Y306078D01*
X107590Y307559D01*
X107444Y309040D01*
X107012Y310465D01*
X106310Y311778D01*
X105366Y312929D01*
X104215Y313873D01*
X102902Y314575D01*
X101478Y315007D01*
X99996Y315153D01*
D02*
G37*
G36*
X377500Y305982D02*
X376599Y305864D01*
X375759Y305516D01*
X375038Y304962D01*
X374484Y304241D01*
X374136Y303401D01*
X374018Y302500D01*
X374136Y301599D01*
X374484Y300759D01*
X375038Y300038D01*
X375759Y299484D01*
X376599Y299136D01*
X377500Y299018D01*
X378401Y299136D01*
X379241Y299484D01*
X379962Y300038D01*
X380516Y300759D01*
X380864Y301599D01*
X380982Y302500D01*
X380864Y303401D01*
X380516Y304241D01*
X379962Y304962D01*
X379241Y305516D01*
X378401Y305864D01*
X377500Y305982D01*
D02*
G37*
G36*
X380953Y285953D02*
X374047D01*
Y279047D01*
X380953D01*
Y285953D01*
D02*
G37*
G36*
X125500Y279833D02*
X124167Y279702D01*
X122885Y279313D01*
X121704Y278681D01*
X120668Y277832D01*
X119819Y276796D01*
X119187Y275615D01*
X118798Y274333D01*
X118667Y273000D01*
X118798Y271667D01*
X119187Y270385D01*
X119819Y269204D01*
X120668Y268168D01*
X121704Y267319D01*
X122885Y266687D01*
X124167Y266298D01*
X125500Y266167D01*
X126833Y266298D01*
X128115Y266687D01*
X129296Y267319D01*
X130332Y268168D01*
X131181Y269204D01*
X131813Y270385D01*
X132202Y271667D01*
X132333Y273000D01*
X132202Y274333D01*
X131813Y275615D01*
X131181Y276796D01*
X130332Y277832D01*
X129296Y278681D01*
X128115Y279313D01*
X126833Y279702D01*
X125500Y279833D01*
D02*
G37*
G36*
X37004Y285484D02*
X35327Y285352D01*
X33691Y284959D01*
X32137Y284315D01*
X30703Y283436D01*
X29424Y282344D01*
X28331Y281065D01*
X27452Y279631D01*
X26809Y278077D01*
X26416Y276441D01*
X26284Y274764D01*
X26416Y273087D01*
X26809Y271451D01*
X27452Y269897D01*
X28331Y268463D01*
X29424Y267184D01*
X30703Y266091D01*
X32137Y265212D01*
X33691Y264568D01*
X35327Y264176D01*
X37004Y264044D01*
X38681Y264176D01*
X40317Y264568D01*
X41871Y265212D01*
X43305Y266091D01*
X44584Y267184D01*
X45677Y268463D01*
X46556Y269897D01*
X47199Y271451D01*
X47592Y273087D01*
X47724Y274764D01*
X47592Y276441D01*
X47199Y278077D01*
X46556Y279631D01*
X45677Y281065D01*
X44584Y282344D01*
X43305Y283436D01*
X41871Y284315D01*
X40317Y284959D01*
X38681Y285352D01*
X37004Y285484D01*
D02*
G37*
G36*
X257500Y255483D02*
X256599Y255364D01*
X255759Y255016D01*
X255037Y254463D01*
X254484Y253741D01*
X254136Y252901D01*
X254017Y252000D01*
X254136Y251099D01*
X254484Y250259D01*
X255037Y249537D01*
X255759Y248984D01*
X256599Y248636D01*
X257500Y248517D01*
X258401Y248636D01*
X259241Y248984D01*
X259963Y249537D01*
X260516Y250259D01*
X260864Y251099D01*
X260982Y252000D01*
X260864Y252901D01*
X260516Y253741D01*
X259963Y254463D01*
X259241Y255016D01*
X258401Y255364D01*
X257500Y255483D01*
D02*
G37*
G36*
X235953Y251453D02*
X229047D01*
Y244547D01*
X235953D01*
Y251453D01*
D02*
G37*
G36*
X354500Y304733D02*
X353837Y304601D01*
X353274Y304226D01*
X352899Y303663D01*
X352767Y303000D01*
X352899Y302337D01*
X353274Y301774D01*
X353480Y301637D01*
Y260422D01*
X340511Y247453D01*
X335047D01*
Y240547D01*
X341953D01*
Y246011D01*
X355221Y259279D01*
X355442Y259610D01*
X355520Y260000D01*
Y301637D01*
X355726Y301774D01*
X356101Y302337D01*
X356233Y303000D01*
X356101Y303663D01*
X355726Y304226D01*
X355163Y304601D01*
X354500Y304733D01*
D02*
G37*
G36*
X182500Y245482D02*
X181599Y245364D01*
X180759Y245016D01*
X180037Y244462D01*
X179484Y243741D01*
X179136Y242901D01*
X179017Y242000D01*
X179136Y241099D01*
X179484Y240259D01*
X180037Y239538D01*
X180759Y238984D01*
X181599Y238636D01*
X182500Y238517D01*
X183401Y238636D01*
X184241Y238984D01*
X184962Y239538D01*
X185516Y240259D01*
X185864Y241099D01*
X185983Y242000D01*
X185864Y242901D01*
X185516Y243741D01*
X184962Y244462D01*
X184241Y245016D01*
X183401Y245364D01*
X182500Y245482D01*
D02*
G37*
G36*
X338500Y237483D02*
X337599Y237364D01*
X336759Y237016D01*
X336037Y236462D01*
X335484Y235741D01*
X335136Y234901D01*
X335017Y234000D01*
X335136Y233099D01*
X335484Y232259D01*
X336037Y231538D01*
X336759Y230984D01*
X337599Y230636D01*
X338500Y230518D01*
X339401Y230636D01*
X340241Y230984D01*
X340963Y231538D01*
X341516Y232259D01*
X341864Y233099D01*
X341983Y234000D01*
X341864Y234901D01*
X341516Y235741D01*
X340963Y236462D01*
X340241Y237016D01*
X339401Y237364D01*
X338500Y237483D01*
D02*
G37*
G36*
X247953Y235453D02*
X241047D01*
Y228547D01*
X247953D01*
Y235453D01*
D02*
G37*
G36*
X182500Y235483D02*
X181599Y235364D01*
X180759Y235016D01*
X180037Y234462D01*
X179484Y233741D01*
X179136Y232901D01*
X179017Y232000D01*
X179136Y231099D01*
X179484Y230259D01*
X180037Y229538D01*
X180759Y228984D01*
X181599Y228636D01*
X182500Y228518D01*
X183401Y228636D01*
X184241Y228984D01*
X184962Y229538D01*
X185516Y230259D01*
X185864Y231099D01*
X185983Y232000D01*
X185864Y232901D01*
X185516Y233741D01*
X184962Y234462D01*
X184241Y235016D01*
X183401Y235364D01*
X182500Y235483D01*
D02*
G37*
G36*
X359000Y298733D02*
X358337Y298601D01*
X357774Y298226D01*
X357399Y297663D01*
X357267Y297000D01*
X357399Y296337D01*
X357774Y295774D01*
X357980Y295637D01*
Y244922D01*
X340123Y227065D01*
X339401Y227364D01*
X338500Y227483D01*
X337599Y227364D01*
X336759Y227016D01*
X336037Y226463D01*
X335484Y225741D01*
X335136Y224901D01*
X335017Y224000D01*
X335136Y223099D01*
X335484Y222259D01*
X336037Y221537D01*
X336759Y220984D01*
X337599Y220636D01*
X338500Y220517D01*
X339401Y220636D01*
X340241Y220984D01*
X340963Y221537D01*
X341516Y222259D01*
X341864Y223099D01*
X341983Y224000D01*
X341864Y224901D01*
X341565Y225623D01*
X359721Y243779D01*
X359942Y244110D01*
X360020Y244500D01*
Y295637D01*
X360226Y295774D01*
X360601Y296337D01*
X360733Y297000D01*
X360601Y297663D01*
X360226Y298226D01*
X359663Y298601D01*
X359000Y298733D01*
D02*
G37*
G36*
X182500Y225483D02*
X181599Y225364D01*
X180759Y225016D01*
X180037Y224463D01*
X179484Y223741D01*
X179136Y222901D01*
X179017Y222000D01*
X179136Y221099D01*
X179484Y220259D01*
X180037Y219537D01*
X180759Y218984D01*
X181599Y218636D01*
X182500Y218517D01*
X183401Y218636D01*
X184241Y218984D01*
X184962Y219537D01*
X185516Y220259D01*
X185864Y221099D01*
X185983Y222000D01*
X185864Y222901D01*
X185516Y223741D01*
X184962Y224463D01*
X184241Y225016D01*
X183401Y225364D01*
X182500Y225483D01*
D02*
G37*
G36*
X205000Y312039D02*
X204220Y311884D01*
X203558Y311442D01*
X203116Y310780D01*
X202961Y310000D01*
X203116Y309220D01*
X203558Y308558D01*
X204220Y308116D01*
X204846Y307992D01*
X213971Y298867D01*
Y222985D01*
X213698Y222802D01*
X213145Y221975D01*
X212951Y221000D01*
X213145Y220024D01*
X213698Y219198D01*
X214525Y218645D01*
X215500Y218451D01*
X216476Y218645D01*
X217302Y219198D01*
X217855Y220024D01*
X218049Y221000D01*
X217855Y221975D01*
X217302Y222802D01*
X217029Y222985D01*
Y299500D01*
X216913Y300085D01*
X216581Y300581D01*
X207009Y310154D01*
X206884Y310780D01*
X206442Y311442D01*
X205780Y311884D01*
X205000Y312039D01*
D02*
G37*
G36*
X338500Y217482D02*
X337599Y217364D01*
X336759Y217016D01*
X336037Y216462D01*
X335484Y215741D01*
X335136Y214901D01*
X335017Y214000D01*
X335136Y213099D01*
X335484Y212259D01*
X336037Y211538D01*
X336759Y210984D01*
X337599Y210636D01*
X338500Y210518D01*
X339401Y210636D01*
X340241Y210984D01*
X340963Y211538D01*
X341516Y212259D01*
X341864Y213099D01*
X341983Y214000D01*
X341864Y214901D01*
X341516Y215741D01*
X340963Y216462D01*
X340241Y217016D01*
X339401Y217364D01*
X338500Y217482D01*
D02*
G37*
G36*
X185953Y215453D02*
X179047D01*
Y208547D01*
X185953D01*
Y215453D01*
D02*
G37*
G36*
X244500Y225483D02*
X243599Y225364D01*
X242759Y225016D01*
X242038Y224463D01*
X241484Y223741D01*
X241136Y222901D01*
X241018Y222000D01*
X241136Y221099D01*
X241484Y220259D01*
X242038Y219537D01*
X242759Y218984D01*
X243480Y218685D01*
Y197500D01*
X243558Y197110D01*
X243779Y196779D01*
X252815Y187743D01*
X252767Y187500D01*
X252899Y186837D01*
X253274Y186274D01*
X253837Y185899D01*
X254500Y185767D01*
X255163Y185899D01*
X255726Y186274D01*
X256101Y186837D01*
X256233Y187500D01*
X256101Y188163D01*
X255726Y188726D01*
X255163Y189101D01*
X254500Y189233D01*
X254257Y189185D01*
X245520Y197922D01*
Y218685D01*
X246241Y218984D01*
X246962Y219537D01*
X247516Y220259D01*
X247864Y221099D01*
X247983Y222000D01*
X247864Y222901D01*
X247516Y223741D01*
X246962Y224463D01*
X246241Y225016D01*
X245401Y225364D01*
X244500Y225483D01*
D02*
G37*
G36*
X182500Y202982D02*
X181599Y202864D01*
X180759Y202516D01*
X180037Y201962D01*
X179484Y201241D01*
X179136Y200401D01*
X179017Y199500D01*
X179136Y198599D01*
X179484Y197759D01*
X180037Y197037D01*
X180759Y196484D01*
X181599Y196136D01*
X182500Y196018D01*
X183401Y196136D01*
X184123Y196435D01*
X195779Y184779D01*
X196110Y184558D01*
X196500Y184480D01*
X231637D01*
X231774Y184274D01*
X232337Y183899D01*
X233000Y183767D01*
X233663Y183899D01*
X234226Y184274D01*
X234601Y184837D01*
X234733Y185500D01*
X234601Y186163D01*
X234226Y186726D01*
X233663Y187101D01*
X233000Y187233D01*
X232337Y187101D01*
X231774Y186726D01*
X231637Y186520D01*
X196922D01*
X185565Y197877D01*
X185864Y198599D01*
X185983Y199500D01*
X185864Y200401D01*
X185516Y201241D01*
X184962Y201962D01*
X184241Y202516D01*
X183401Y202864D01*
X182500Y202982D01*
D02*
G37*
G36*
X341953Y189953D02*
X335047D01*
Y183047D01*
X341953D01*
Y189953D01*
D02*
G37*
G36*
X182500Y192982D02*
X181599Y192864D01*
X180759Y192516D01*
X180037Y191963D01*
X179484Y191241D01*
X179136Y190401D01*
X179017Y189500D01*
X179136Y188599D01*
X179484Y187759D01*
X180037Y187038D01*
X180759Y186484D01*
X181599Y186136D01*
X182500Y186018D01*
X183401Y186136D01*
X184123Y186435D01*
X189279Y181279D01*
X189610Y181058D01*
X189803Y181020D01*
X189754Y180520D01*
X185815D01*
X185516Y181241D01*
X184962Y181963D01*
X184241Y182516D01*
X183401Y182864D01*
X182500Y182983D01*
X181599Y182864D01*
X180759Y182516D01*
X180037Y181963D01*
X179484Y181241D01*
X179136Y180401D01*
X179017Y179500D01*
X179136Y178599D01*
X179484Y177759D01*
X180037Y177038D01*
X180759Y176484D01*
X181599Y176136D01*
X182500Y176017D01*
X183401Y176136D01*
X184241Y176484D01*
X184962Y177038D01*
X185516Y177759D01*
X185815Y178480D01*
X226199D01*
X226788Y177891D01*
X226899Y177337D01*
X227274Y176774D01*
X227837Y176399D01*
X228500Y176267D01*
X229163Y176399D01*
X229726Y176774D01*
X230101Y177337D01*
X230233Y178000D01*
X230101Y178663D01*
X229726Y179226D01*
X229163Y179601D01*
X228500Y179733D01*
X227941Y179622D01*
X227342Y180221D01*
X227011Y180442D01*
X226818Y180480D01*
X226867Y180980D01*
X229137D01*
X229274Y180774D01*
X229837Y180399D01*
X230500Y180267D01*
X231163Y180399D01*
X231726Y180774D01*
X232101Y181337D01*
X232233Y182000D01*
X232101Y182663D01*
X231726Y183226D01*
X231163Y183601D01*
X230500Y183733D01*
X229837Y183601D01*
X229274Y183226D01*
X229137Y183020D01*
X190422D01*
X185565Y187877D01*
X185864Y188599D01*
X185983Y189500D01*
X185864Y190401D01*
X185516Y191241D01*
X184962Y191963D01*
X184241Y192516D01*
X183401Y192864D01*
X182500Y192982D01*
D02*
G37*
G36*
X387000Y249733D02*
X386337Y249601D01*
X385774Y249226D01*
X385399Y248663D01*
X385267Y248000D01*
X385399Y247337D01*
X385774Y246774D01*
X385980Y246637D01*
Y225422D01*
X340123Y179565D01*
X339401Y179864D01*
X338500Y179982D01*
X337599Y179864D01*
X336759Y179516D01*
X336037Y178963D01*
X335484Y178241D01*
X335136Y177401D01*
X335017Y176500D01*
X335136Y175599D01*
X335484Y174759D01*
X336037Y174038D01*
X336759Y173484D01*
X337599Y173136D01*
X338500Y173018D01*
X339401Y173136D01*
X340241Y173484D01*
X340963Y174038D01*
X341516Y174759D01*
X341864Y175599D01*
X341983Y176500D01*
X341864Y177401D01*
X341565Y178123D01*
X387721Y224279D01*
X387942Y224610D01*
X388020Y225000D01*
Y246637D01*
X388226Y246774D01*
X388601Y247337D01*
X388733Y248000D01*
X388601Y248663D01*
X388226Y249226D01*
X387663Y249601D01*
X387000Y249733D01*
D02*
G37*
G36*
X232500Y241482D02*
X231599Y241364D01*
X230759Y241016D01*
X230037Y240462D01*
X229484Y239741D01*
X229136Y238901D01*
X229017Y238000D01*
X229136Y237099D01*
X229484Y236259D01*
X230037Y235538D01*
X230759Y234984D01*
X231480Y234685D01*
Y200000D01*
X231558Y199610D01*
X231779Y199279D01*
X251815Y179243D01*
X251767Y179000D01*
X251899Y178337D01*
X252274Y177774D01*
X252837Y177399D01*
X253500Y177267D01*
X254163Y177399D01*
X254726Y177774D01*
X255101Y178337D01*
X255233Y179000D01*
X255101Y179663D01*
X254726Y180226D01*
X254163Y180601D01*
X253500Y180733D01*
X253257Y180685D01*
X233520Y200422D01*
Y234685D01*
X234241Y234984D01*
X234963Y235538D01*
X235516Y236259D01*
X235864Y237099D01*
X235982Y238000D01*
X235864Y238901D01*
X235516Y239741D01*
X234963Y240462D01*
X234241Y241016D01*
X233401Y241364D01*
X232500Y241482D01*
D02*
G37*
G36*
X185953Y172953D02*
X179047D01*
Y166047D01*
X185953D01*
Y172953D01*
D02*
G37*
G36*
X210500Y174026D02*
X209717Y173923D01*
X208987Y173620D01*
X208360Y173140D01*
X207879Y172513D01*
X207577Y171783D01*
X207474Y171000D01*
X207577Y170217D01*
X207879Y169487D01*
X208360Y168860D01*
X208980Y168385D01*
Y167422D01*
X180243Y138685D01*
X180000Y138733D01*
X179337Y138601D01*
X178774Y138226D01*
X178399Y137663D01*
X178267Y137000D01*
X178399Y136337D01*
X178774Y135774D01*
X179337Y135399D01*
X180000Y135267D01*
X180663Y135399D01*
X181226Y135774D01*
X181601Y136337D01*
X181733Y137000D01*
X181685Y137243D01*
X210721Y166279D01*
X210942Y166610D01*
X211020Y167000D01*
Y168043D01*
X211283Y168077D01*
X211776Y168282D01*
X228980Y151078D01*
Y146500D01*
Y115363D01*
X228774Y115226D01*
X228399Y114663D01*
X228267Y114000D01*
X228399Y113337D01*
X228572Y113077D01*
X228184Y112758D01*
X222221Y118721D01*
X221890Y118942D01*
X221500Y119020D01*
X220422D01*
X209685Y129757D01*
X209733Y130000D01*
X209601Y130663D01*
X209226Y131226D01*
X208663Y131601D01*
X208000Y131733D01*
X207337Y131601D01*
X206774Y131226D01*
X206399Y130663D01*
X206267Y130000D01*
X206399Y129337D01*
X206774Y128774D01*
X207337Y128399D01*
X208000Y128267D01*
X208243Y128315D01*
X219279Y117279D01*
X219610Y117058D01*
X220000Y116980D01*
X221078D01*
X223266Y114793D01*
X222947Y114404D01*
X222890Y114442D01*
X222500Y114520D01*
X219422D01*
X204403Y129539D01*
X204601Y129837D01*
X204733Y130500D01*
X204601Y131163D01*
X204226Y131726D01*
X203663Y132101D01*
X203000Y132233D01*
X202337Y132101D01*
X201774Y131726D01*
X201399Y131163D01*
X201267Y130500D01*
X201399Y129837D01*
X201774Y129274D01*
X202088Y129065D01*
X202279Y128779D01*
X218279Y112779D01*
X218610Y112558D01*
X219000Y112480D01*
X222078D01*
X230279Y104279D01*
X230610Y104058D01*
X231000Y103980D01*
X275078D01*
X282279Y96779D01*
X282610Y96558D01*
X283000Y96480D01*
X363500D01*
X363890Y96558D01*
X364221Y96779D01*
X369721Y102279D01*
X369942Y102610D01*
X370020Y103000D01*
Y106137D01*
X370226Y106274D01*
X370601Y106837D01*
X370733Y107500D01*
X370601Y108163D01*
X370226Y108726D01*
X369663Y109101D01*
X369000Y109233D01*
X368337Y109101D01*
X367774Y108726D01*
X367399Y108163D01*
X367267Y107500D01*
X367399Y106837D01*
X367774Y106274D01*
X367980Y106137D01*
Y103422D01*
X363078Y98520D01*
X360246D01*
X360197Y99020D01*
X360390Y99058D01*
X360721Y99279D01*
X365721Y104279D01*
X365942Y104610D01*
X366020Y105000D01*
Y108137D01*
X366226Y108274D01*
X366601Y108837D01*
X366733Y109500D01*
X366601Y110163D01*
X366226Y110726D01*
X365663Y111101D01*
X365000Y111233D01*
X364337Y111101D01*
X363774Y110726D01*
X363399Y110163D01*
X363267Y109500D01*
X363399Y108837D01*
X363774Y108274D01*
X363980Y108137D01*
Y105422D01*
X359578Y101020D01*
X284422D01*
X276721Y108721D01*
X276390Y108942D01*
X276000Y109020D01*
X231922D01*
X228758Y112184D01*
X229077Y112572D01*
X229337Y112399D01*
X230000Y112267D01*
X230663Y112399D01*
X231226Y112774D01*
X231601Y113337D01*
X231733Y114000D01*
X231601Y114663D01*
X231226Y115226D01*
X231020Y115363D01*
Y143385D01*
X231482Y143577D01*
X257815Y117243D01*
X257767Y117000D01*
X257899Y116337D01*
X258274Y115774D01*
X258837Y115399D01*
X259500Y115267D01*
X260163Y115399D01*
X260726Y115774D01*
X261101Y116337D01*
X261233Y117000D01*
X261101Y117663D01*
X260726Y118226D01*
X260163Y118601D01*
X259500Y118733D01*
X259257Y118685D01*
X231020Y146922D01*
Y150480D01*
X255000D01*
X255390Y150558D01*
X255721Y150779D01*
X269757Y164815D01*
X270000Y164767D01*
X270663Y164899D01*
X271226Y165274D01*
X271601Y165837D01*
X271733Y166500D01*
X271601Y167163D01*
X271226Y167726D01*
X270663Y168101D01*
X270000Y168233D01*
X269337Y168101D01*
X268774Y167726D01*
X268399Y167163D01*
X268267Y166500D01*
X268315Y166257D01*
X254578Y152520D01*
X230422D01*
X213218Y169723D01*
X213423Y170217D01*
X213526Y171000D01*
X213423Y171783D01*
X213121Y172513D01*
X212640Y173140D01*
X212013Y173620D01*
X211283Y173923D01*
X210500Y174026D01*
D02*
G37*
G36*
X338500Y159983D02*
X337599Y159864D01*
X336759Y159516D01*
X336037Y158963D01*
X335484Y158241D01*
X335136Y157401D01*
X335017Y156500D01*
X335136Y155599D01*
X335484Y154759D01*
X336037Y154037D01*
X336759Y153484D01*
X337599Y153136D01*
X338500Y153017D01*
X339401Y153136D01*
X340241Y153484D01*
X340963Y154037D01*
X341516Y154759D01*
X341864Y155599D01*
X341983Y156500D01*
X341864Y157401D01*
X341516Y158241D01*
X340963Y158963D01*
X340241Y159516D01*
X339401Y159864D01*
X338500Y159983D01*
D02*
G37*
G36*
X371500Y151833D02*
X370167Y151702D01*
X368885Y151313D01*
X367704Y150681D01*
X366668Y149832D01*
X365819Y148796D01*
X365187Y147615D01*
X364798Y146333D01*
X364667Y145000D01*
X364798Y143667D01*
X365187Y142385D01*
X365819Y141204D01*
X366668Y140168D01*
X367704Y139319D01*
X368885Y138687D01*
X370167Y138298D01*
X371500Y138167D01*
X372833Y138298D01*
X374115Y138687D01*
X375296Y139319D01*
X376332Y140168D01*
X377181Y141204D01*
X377813Y142385D01*
X378202Y143667D01*
X378333Y145000D01*
X378202Y146333D01*
X377813Y147615D01*
X377181Y148796D01*
X376332Y149832D01*
X375296Y150681D01*
X374115Y151313D01*
X372833Y151702D01*
X371500Y151833D01*
D02*
G37*
G36*
X331953Y141953D02*
X325047D01*
Y135047D01*
X331953D01*
Y141953D01*
D02*
G37*
G36*
X338500Y131983D02*
X337599Y131864D01*
X336759Y131516D01*
X336037Y130963D01*
X335484Y130241D01*
X335136Y129401D01*
X335017Y128500D01*
X335136Y127599D01*
X335484Y126759D01*
X336037Y126038D01*
X336759Y125484D01*
X337599Y125136D01*
X338500Y125017D01*
X339401Y125136D01*
X340241Y125484D01*
X340963Y126038D01*
X341516Y126759D01*
X341864Y127599D01*
X341983Y128500D01*
X341864Y129401D01*
X341516Y130241D01*
X340963Y130963D01*
X340241Y131516D01*
X339401Y131864D01*
X338500Y131983D01*
D02*
G37*
G36*
X328500D02*
X327599Y131864D01*
X326759Y131516D01*
X326038Y130963D01*
X325484Y130241D01*
X325136Y129401D01*
X325017Y128500D01*
X325136Y127599D01*
X325484Y126759D01*
X326038Y126038D01*
X326759Y125484D01*
X327599Y125136D01*
X328500Y125017D01*
X329401Y125136D01*
X330241Y125484D01*
X330962Y126038D01*
X331516Y126759D01*
X331864Y127599D01*
X331982Y128500D01*
X331864Y129401D01*
X331516Y130241D01*
X330962Y130963D01*
X330241Y131516D01*
X329401Y131864D01*
X328500Y131983D01*
D02*
G37*
G36*
X338500Y121983D02*
X337599Y121864D01*
X336759Y121516D01*
X336037Y120963D01*
X335484Y120241D01*
X335136Y119401D01*
X335017Y118500D01*
X335136Y117599D01*
X335484Y116759D01*
X336037Y116037D01*
X336759Y115484D01*
X337599Y115136D01*
X338500Y115017D01*
X339401Y115136D01*
X340241Y115484D01*
X340963Y116037D01*
X341516Y116759D01*
X341864Y117599D01*
X341983Y118500D01*
X341864Y119401D01*
X341516Y120241D01*
X340963Y120963D01*
X340241Y121516D01*
X339401Y121864D01*
X338500Y121983D01*
D02*
G37*
G36*
X328500D02*
X327599Y121864D01*
X326759Y121516D01*
X326038Y120963D01*
X325484Y120241D01*
X325136Y119401D01*
X325017Y118500D01*
X325136Y117599D01*
X325484Y116759D01*
X326038Y116037D01*
X326759Y115484D01*
X327599Y115136D01*
X328500Y115017D01*
X329401Y115136D01*
X330241Y115484D01*
X330962Y116037D01*
X331516Y116759D01*
X331864Y117599D01*
X331982Y118500D01*
X331864Y119401D01*
X331516Y120241D01*
X330962Y120963D01*
X330241Y121516D01*
X329401Y121864D01*
X328500Y121983D01*
D02*
G37*
G36*
X338500Y141982D02*
X337599Y141864D01*
X336759Y141516D01*
X336037Y140963D01*
X335484Y140241D01*
X335136Y139401D01*
X335017Y138500D01*
X335136Y137599D01*
X335484Y136759D01*
X336037Y136038D01*
X336759Y135484D01*
X337599Y135136D01*
X338500Y135018D01*
X339401Y135136D01*
X340241Y135484D01*
X340963Y136038D01*
X341516Y136759D01*
X341815Y137480D01*
X344578D01*
X355980Y126078D01*
Y117363D01*
X355774Y117226D01*
X355399Y116663D01*
X355267Y116000D01*
X355399Y115337D01*
X355774Y114774D01*
X356337Y114399D01*
X357000Y114267D01*
X357663Y114399D01*
X358226Y114774D01*
X358601Y115337D01*
X358733Y116000D01*
X358601Y116663D01*
X358226Y117226D01*
X358020Y117363D01*
Y126500D01*
X357942Y126890D01*
X357721Y127221D01*
X345721Y139221D01*
X345390Y139442D01*
X345000Y139520D01*
X341815D01*
X341516Y140241D01*
X340963Y140963D01*
X340241Y141516D01*
X339401Y141864D01*
X338500Y141982D01*
D02*
G37*
G36*
X203500Y119883D02*
X198617Y115000D01*
X203500Y110117D01*
X208383Y115000D01*
X203500Y119883D01*
D02*
G37*
G36*
X362000Y132733D02*
X361337Y132601D01*
X360774Y132226D01*
X360399Y131663D01*
X360267Y131000D01*
X360399Y130337D01*
X360774Y129774D01*
X360980Y129637D01*
Y115922D01*
X354578Y109520D01*
X341815D01*
X341516Y110241D01*
X340963Y110962D01*
X340241Y111516D01*
X339401Y111864D01*
X338500Y111983D01*
X337599Y111864D01*
X336759Y111516D01*
X336037Y110962D01*
X335484Y110241D01*
X335136Y109401D01*
X335017Y108500D01*
X335136Y107599D01*
X335484Y106759D01*
X336037Y106037D01*
X336759Y105484D01*
X337599Y105136D01*
X338500Y105017D01*
X339401Y105136D01*
X340241Y105484D01*
X340963Y106037D01*
X341516Y106759D01*
X341815Y107480D01*
X355000D01*
X355390Y107558D01*
X355721Y107779D01*
X362721Y114779D01*
X362942Y115110D01*
X363020Y115500D01*
Y129637D01*
X363226Y129774D01*
X363601Y130337D01*
X363733Y131000D01*
X363601Y131663D01*
X363226Y132226D01*
X362663Y132601D01*
X362000Y132733D01*
D02*
G37*
G36*
X220000Y341482D02*
X219099Y341364D01*
X218259Y341016D01*
X217537Y340462D01*
X216984Y339741D01*
X216636Y338901D01*
X216517Y338000D01*
X216636Y337099D01*
X216984Y336259D01*
X217537Y335538D01*
X218259Y334984D01*
X219099Y334636D01*
X220000Y334518D01*
X220901Y334636D01*
X221623Y334935D01*
X258980Y297578D01*
Y260750D01*
X259058Y260360D01*
X259279Y260029D01*
X286480Y232828D01*
Y111326D01*
X285698Y110802D01*
X285145Y109976D01*
X284951Y109000D01*
X285145Y108025D01*
X285698Y107198D01*
X286525Y106645D01*
X287500Y106451D01*
X288475Y106645D01*
X289302Y107198D01*
X289855Y108025D01*
X290049Y109000D01*
X289855Y109976D01*
X289302Y110802D01*
X288520Y111326D01*
Y233250D01*
X288442Y233640D01*
X288221Y233971D01*
X261020Y261172D01*
Y298000D01*
X260942Y298390D01*
X260721Y298721D01*
X223065Y336377D01*
X223364Y337099D01*
X223482Y338000D01*
X223364Y338901D01*
X223016Y339741D01*
X222463Y340462D01*
X221741Y341016D01*
X220901Y341364D01*
X220000Y341482D01*
D02*
G37*
G36*
X328500Y111983D02*
X327599Y111864D01*
X326759Y111516D01*
X326038Y110962D01*
X325484Y110241D01*
X325136Y109401D01*
X325017Y108500D01*
X325136Y107599D01*
X325484Y106759D01*
X326038Y106037D01*
X326759Y105484D01*
X327599Y105136D01*
X328500Y105017D01*
X329401Y105136D01*
X330241Y105484D01*
X330962Y106037D01*
X331516Y106759D01*
X331864Y107599D01*
X331982Y108500D01*
X331864Y109401D01*
X331516Y110241D01*
X330962Y110962D01*
X330241Y111516D01*
X329401Y111864D01*
X328500Y111983D01*
D02*
G37*
G36*
X210571Y111411D02*
X209670Y111293D01*
X208830Y110945D01*
X208108Y110391D01*
X207555Y109670D01*
X207207Y108830D01*
X207088Y107929D01*
X207207Y107028D01*
X207555Y106188D01*
X208108Y105466D01*
X208830Y104913D01*
X209670Y104565D01*
X210571Y104446D01*
X211472Y104565D01*
X212312Y104913D01*
X213034Y105466D01*
X213587Y106188D01*
X213935Y107028D01*
X214054Y107929D01*
X213935Y108830D01*
X213587Y109670D01*
X213034Y110391D01*
X212312Y110945D01*
X211472Y111293D01*
X210571Y111411D01*
D02*
G37*
G36*
X238453Y100453D02*
X231547D01*
Y93547D01*
X238453D01*
Y100453D01*
D02*
G37*
G36*
X265000Y100482D02*
X264099Y100364D01*
X263259Y100016D01*
X262538Y99462D01*
X261984Y98741D01*
X261636Y97901D01*
X261518Y97000D01*
X261636Y96099D01*
X261984Y95259D01*
X262538Y94538D01*
X263259Y93984D01*
X264099Y93636D01*
X265000Y93518D01*
X265901Y93636D01*
X266741Y93984D01*
X267462Y94538D01*
X268016Y95259D01*
X268364Y96099D01*
X268482Y97000D01*
X268364Y97901D01*
X268016Y98741D01*
X267462Y99462D01*
X266741Y100016D01*
X265901Y100364D01*
X265000Y100482D01*
D02*
G37*
G36*
X255000D02*
X254099Y100364D01*
X253259Y100016D01*
X252537Y99462D01*
X251984Y98741D01*
X251636Y97901D01*
X251518Y97000D01*
X251636Y96099D01*
X251984Y95259D01*
X252537Y94538D01*
X253259Y93984D01*
X254099Y93636D01*
X255000Y93518D01*
X255901Y93636D01*
X256741Y93984D01*
X257463Y94538D01*
X258016Y95259D01*
X258364Y96099D01*
X258483Y97000D01*
X258364Y97901D01*
X258016Y98741D01*
X257463Y99462D01*
X256741Y100016D01*
X255901Y100364D01*
X255000Y100482D01*
D02*
G37*
G36*
X245000D02*
X244099Y100364D01*
X243259Y100016D01*
X242537Y99462D01*
X241984Y98741D01*
X241636Y97901D01*
X241517Y97000D01*
X241636Y96099D01*
X241984Y95259D01*
X242537Y94538D01*
X243259Y93984D01*
X244099Y93636D01*
X245000Y93518D01*
X245901Y93636D01*
X246741Y93984D01*
X247463Y94538D01*
X248016Y95259D01*
X248364Y96099D01*
X248482Y97000D01*
X248364Y97901D01*
X248016Y98741D01*
X247463Y99462D01*
X246741Y100016D01*
X245901Y100364D01*
X245000Y100482D01*
D02*
G37*
G36*
X379000Y117233D02*
X378337Y117101D01*
X377774Y116726D01*
X377399Y116163D01*
X377267Y115500D01*
X377399Y114837D01*
X377774Y114274D01*
X377980Y114137D01*
Y105422D01*
X360279Y87721D01*
X360058Y87390D01*
X359980Y87000D01*
Y83863D01*
X359774Y83726D01*
X359399Y83163D01*
X359267Y82500D01*
X359399Y81837D01*
X359774Y81274D01*
X360337Y80899D01*
X361000Y80767D01*
X361663Y80899D01*
X362226Y81274D01*
X362601Y81837D01*
X362733Y82500D01*
X362601Y83163D01*
X362226Y83726D01*
X362020Y83863D01*
Y86578D01*
X379721Y104279D01*
X379942Y104610D01*
X380020Y105000D01*
Y114137D01*
X380226Y114274D01*
X380601Y114837D01*
X380733Y115500D01*
X380601Y116163D01*
X380226Y116726D01*
X379663Y117101D01*
X379000Y117233D01*
D02*
G37*
G36*
X99996Y68161D02*
X98319Y68029D01*
X96683Y67636D01*
X95129Y66993D01*
X93695Y66114D01*
X92416Y65021D01*
X91323Y63742D01*
X90444Y62308D01*
X89801Y60754D01*
X89408Y59118D01*
X89276Y57441D01*
X89408Y55764D01*
X89801Y54128D01*
X90444Y52574D01*
X91323Y51140D01*
X92416Y49861D01*
X93695Y48768D01*
X95129Y47889D01*
X96683Y47246D01*
X98319Y46853D01*
X99996Y46721D01*
X101673Y46853D01*
X103309Y47246D01*
X104863Y47889D01*
X106297Y48768D01*
X107576Y49861D01*
X108669Y51140D01*
X109548Y52574D01*
X110191Y54128D01*
X110584Y55764D01*
X110716Y57441D01*
X110584Y59118D01*
X110191Y60754D01*
X109548Y62308D01*
X108669Y63742D01*
X107576Y65021D01*
X106297Y66114D01*
X104863Y66993D01*
X103309Y67636D01*
X101673Y68029D01*
X99996Y68161D01*
D02*
G37*
G36*
X376000Y24833D02*
X374667Y24702D01*
X373385Y24313D01*
X372204Y23681D01*
X371168Y22832D01*
X370319Y21796D01*
X369687Y20615D01*
X369298Y19333D01*
X369167Y18000D01*
X369298Y16667D01*
X369687Y15385D01*
X370319Y14204D01*
X371168Y13168D01*
X372204Y12319D01*
X373385Y11687D01*
X374667Y11298D01*
X376000Y11167D01*
X377333Y11298D01*
X378615Y11687D01*
X379796Y12319D01*
X380832Y13168D01*
X381681Y14204D01*
X382313Y15385D01*
X382702Y16667D01*
X382833Y18000D01*
X382702Y19333D01*
X382313Y20615D01*
X381681Y21796D01*
X380832Y22832D01*
X379796Y23681D01*
X378615Y24313D01*
X377333Y24702D01*
X376000Y24833D01*
D02*
G37*
%LPD*%
D14*
X180000Y137000D02*
X210000Y167000D01*
Y170500D01*
X210500Y171000D01*
X260000Y260750D02*
X287500Y233250D01*
Y109000D02*
Y233250D01*
X260000Y260750D02*
Y298000D01*
X220000Y338000D02*
X260000Y298000D01*
X361000Y87000D02*
X379000Y105000D01*
X361000Y82500D02*
Y87000D01*
X379000Y105000D02*
Y115500D01*
X230000Y151500D02*
X255000D01*
X270000Y166500D01*
X230000Y114000D02*
Y146500D01*
Y151500D01*
Y146500D02*
X259500Y117000D01*
X210500Y171000D02*
X230000Y151500D01*
X231500Y108000D02*
X276000D01*
X221500Y118000D02*
X231500Y108000D01*
X220000Y118000D02*
X221500D01*
X231000Y105000D02*
X275500D01*
X222500Y113500D02*
X231000Y105000D01*
X219000Y113500D02*
X222500D01*
X387000Y225000D02*
Y248000D01*
X338500Y176500D02*
X387000Y225000D01*
X276000Y108000D02*
X284000Y100000D01*
X203000Y129500D02*
X219000Y113500D01*
X208000Y130000D02*
X220000Y118000D01*
X203000Y129500D02*
Y130500D01*
X359000Y244500D02*
Y297000D01*
X338500Y224000D02*
X359000Y244500D01*
X354500Y260000D02*
Y303000D01*
X338500Y244000D02*
X354500Y260000D01*
X244500Y197500D02*
X254500Y187500D01*
X244500Y197500D02*
Y222000D01*
X232500Y200000D02*
X253500Y179000D01*
X232500Y200000D02*
Y238000D01*
X363500Y97500D02*
X369000Y103000D01*
X283000Y97500D02*
X363500D01*
X275500Y105000D02*
X283000Y97500D01*
X369000Y103000D02*
Y107500D01*
X365000Y105000D02*
Y109500D01*
X360000Y100000D02*
X365000Y105000D01*
X284000Y100000D02*
X360000D01*
X338500Y108500D02*
X355000D01*
X228121Y178000D02*
X228500D01*
X182500Y199500D02*
X196500Y185500D01*
X233000D01*
X182500Y189500D02*
X190000Y182000D01*
X230500D01*
X226621Y179500D02*
X228121Y178000D01*
X182500Y179500D02*
X226621D01*
X355000Y108500D02*
X362000Y115500D01*
Y131000D01*
X357000Y116000D02*
Y126500D01*
X345000Y138500D02*
X357000Y126500D01*
X338500Y138500D02*
X345000D01*
D67*
X215500Y221000D02*
Y299500D01*
X205000Y310000D02*
X215500Y299500D01*
D69*
X182500Y199500D02*
D03*
Y189500D02*
D03*
Y179500D02*
D03*
X338500Y108500D02*
D03*
X328500D02*
D03*
X338500Y118500D02*
D03*
X328500D02*
D03*
X338500Y128500D02*
D03*
X328500D02*
D03*
X338500Y138500D02*
D03*
X220000Y338000D02*
D03*
X377500Y342500D02*
D03*
Y332500D02*
D03*
Y322500D02*
D03*
Y312500D02*
D03*
Y292500D02*
D03*
Y302500D02*
D03*
X232500Y238000D02*
D03*
X244500Y222000D02*
D03*
X182500Y242000D02*
D03*
Y232000D02*
D03*
Y222000D02*
D03*
X265000Y97000D02*
D03*
X255000D02*
D03*
X245000D02*
D03*
X257500Y252000D02*
D03*
X338500Y234000D02*
D03*
Y224000D02*
D03*
Y214000D02*
D03*
Y156500D02*
D03*
Y166500D02*
D03*
Y176500D02*
D03*
X210571Y107929D02*
D03*
D70*
X182500Y169500D02*
D03*
X328500Y138500D02*
D03*
X220000Y348000D02*
D03*
X377500Y282500D02*
D03*
X232500Y248000D02*
D03*
X244500Y232000D02*
D03*
X182500Y212000D02*
D03*
X257500Y242000D02*
D03*
X338500Y244000D02*
D03*
Y186500D02*
D03*
D71*
X99996Y307559D02*
D03*
D72*
X37004Y274764D02*
D03*
X99996Y57441D02*
D03*
D73*
X381000Y356000D02*
D03*
X371500Y145000D02*
D03*
X376000Y18000D02*
D03*
X132500Y14500D02*
D03*
X125500Y273000D02*
D03*
X15500Y12500D02*
D03*
X14500Y356500D02*
D03*
D74*
X235000Y97000D02*
D03*
D75*
X203500Y115000D02*
D03*
D76*
X380000Y86000D02*
D03*
X179500Y144000D02*
D03*
X361000Y82500D02*
D03*
X379000Y115500D02*
D03*
X180000Y137000D02*
D03*
X270000Y166500D02*
D03*
X259500Y117000D02*
D03*
X230000Y114000D02*
D03*
X387000Y248000D02*
D03*
X262500Y334000D02*
D03*
X199500Y213500D02*
D03*
X385000Y115000D02*
D03*
X359000Y297000D02*
D03*
X354500Y303000D02*
D03*
X254500Y187500D02*
D03*
X253500Y179000D02*
D03*
X208000Y130000D02*
D03*
X203000Y130500D02*
D03*
X365000Y109500D02*
D03*
X369000Y107500D02*
D03*
X228500Y178000D02*
D03*
X233000Y185500D02*
D03*
X230500Y182000D02*
D03*
X319000Y307500D02*
D03*
Y312500D02*
D03*
Y317500D02*
D03*
X307000Y312500D02*
D03*
Y317500D02*
D03*
Y307500D02*
D03*
X315000D02*
D03*
Y312500D02*
D03*
Y317500D02*
D03*
X311000Y307500D02*
D03*
Y312500D02*
D03*
Y317500D02*
D03*
X362000Y131000D02*
D03*
X357000Y116000D02*
D03*
X256500Y112500D02*
D03*
X373500Y109500D02*
D03*
X165000Y136000D02*
D03*
X318500Y248000D02*
D03*
D77*
X287500Y109000D02*
D03*
X215500Y221000D02*
D03*
X352500Y175000D02*
D03*
X207500Y338500D02*
D03*
X201500D02*
D03*
X221000Y109000D02*
D03*
X222445Y220945D02*
D03*
X195500Y92500D02*
D03*
X355500Y204500D02*
D03*
X266500Y280000D02*
D03*
X248500Y275000D02*
D03*
D78*
X210500Y171000D02*
D03*
D79*
X205000Y310000D02*
D03*
X78000Y16667D02*
D03*
X65333D02*
D03*
X78000Y23833D02*
D03*
X71667D02*
D03*
X65333D02*
D03*
X59000D02*
D03*
Y31500D02*
D03*
X65333D02*
D03*
X71667D02*
D03*
X78000D02*
D03*
X71667Y16667D02*
D03*
X59000D02*
D03*
X78000Y39167D02*
D03*
X71667D02*
D03*
X65333D02*
D03*
X59000Y39167D02*
D03*
D80*
X177500Y252500D02*
D03*
M02*
