G04*
G04 #@! TF.GenerationSoftware,Altium Limited,Altium Designer,19.1.8 (144)*
G04*
G04 Layer_Color=16711935*
%FSLAX25Y25*%
%MOIN*%
G70*
G01*
G75*
%ADD55C,0.06706*%
%ADD56R,0.06706X0.06706*%
%ADD57C,0.14914*%
%ADD58C,0.21174*%
%ADD59C,0.13400*%
%ADD60R,0.06706X0.06706*%
%ADD61P,0.09483X4X360.0*%
%ADD62C,0.03200*%
%ADD63C,0.04800*%
%ADD64C,0.05800*%
%ADD65C,0.03800*%
%ADD66C,0.06400*%
D55*
X182500Y199500D02*
D03*
Y189500D02*
D03*
Y179500D02*
D03*
X338500Y108500D02*
D03*
X328500D02*
D03*
X338500Y118500D02*
D03*
X328500D02*
D03*
X338500Y128500D02*
D03*
X328500D02*
D03*
X338500Y138500D02*
D03*
X220000Y338000D02*
D03*
X377500Y342500D02*
D03*
Y332500D02*
D03*
Y322500D02*
D03*
Y312500D02*
D03*
Y292500D02*
D03*
Y302500D02*
D03*
X232500Y238000D02*
D03*
X244500Y222000D02*
D03*
X182500Y242000D02*
D03*
Y232000D02*
D03*
Y222000D02*
D03*
X265000Y97000D02*
D03*
X255000D02*
D03*
X245000D02*
D03*
X257500Y252000D02*
D03*
X338500Y234000D02*
D03*
Y224000D02*
D03*
Y214000D02*
D03*
Y156500D02*
D03*
Y166500D02*
D03*
Y176500D02*
D03*
X210571Y107929D02*
D03*
D56*
X182500Y169500D02*
D03*
X328500Y138500D02*
D03*
X220000Y348000D02*
D03*
X377500Y282500D02*
D03*
X232500Y248000D02*
D03*
X244500Y232000D02*
D03*
X182500Y212000D02*
D03*
X257500Y242000D02*
D03*
X338500Y244000D02*
D03*
Y186500D02*
D03*
D57*
X99996Y307559D02*
D03*
D58*
X37004Y274764D02*
D03*
X99996Y57441D02*
D03*
D59*
X381000Y356000D02*
D03*
X371500Y145000D02*
D03*
X376000Y18000D02*
D03*
X132500Y14500D02*
D03*
X125500Y273000D02*
D03*
X15500Y12500D02*
D03*
X14500Y356500D02*
D03*
D60*
X235000Y97000D02*
D03*
D61*
X203500Y115000D02*
D03*
D62*
X380000Y86000D02*
D03*
X179500Y144000D02*
D03*
X361000Y82500D02*
D03*
X379000Y115500D02*
D03*
X180000Y137000D02*
D03*
X270000Y166500D02*
D03*
X259500Y117000D02*
D03*
X230000Y114000D02*
D03*
X387000Y248000D02*
D03*
X262500Y334000D02*
D03*
X199500Y213500D02*
D03*
X385000Y115000D02*
D03*
X359000Y297000D02*
D03*
X354500Y303000D02*
D03*
X254500Y187500D02*
D03*
X253500Y179000D02*
D03*
X208000Y130000D02*
D03*
X203000Y130500D02*
D03*
X365000Y109500D02*
D03*
X369000Y107500D02*
D03*
X228500Y178000D02*
D03*
X233000Y185500D02*
D03*
X230500Y182000D02*
D03*
X319000Y307500D02*
D03*
Y312500D02*
D03*
Y317500D02*
D03*
X307000Y312500D02*
D03*
Y317500D02*
D03*
Y307500D02*
D03*
X315000D02*
D03*
Y312500D02*
D03*
Y317500D02*
D03*
X311000Y307500D02*
D03*
Y312500D02*
D03*
Y317500D02*
D03*
X362000Y131000D02*
D03*
X357000Y116000D02*
D03*
X256500Y112500D02*
D03*
X373500Y109500D02*
D03*
X165000Y136000D02*
D03*
X318500Y248000D02*
D03*
D63*
X287500Y109000D02*
D03*
X215500Y221000D02*
D03*
X352500Y175000D02*
D03*
X207500Y338500D02*
D03*
X201500D02*
D03*
X221000Y109000D02*
D03*
X222445Y220945D02*
D03*
X195500Y92500D02*
D03*
X355500Y204500D02*
D03*
X266500Y280000D02*
D03*
X248500Y275000D02*
D03*
D64*
X210500Y171000D02*
D03*
D65*
X205000Y310000D02*
D03*
X78000Y16667D02*
D03*
X65333D02*
D03*
X78000Y23833D02*
D03*
X71667D02*
D03*
X65333D02*
D03*
X59000D02*
D03*
Y31500D02*
D03*
X65333D02*
D03*
X71667D02*
D03*
X78000D02*
D03*
X71667Y16667D02*
D03*
X59000D02*
D03*
X78000Y39167D02*
D03*
X71667D02*
D03*
X65333D02*
D03*
X59000Y39167D02*
D03*
D66*
X177500Y252500D02*
D03*
M02*
