G04*
G04 #@! TF.GenerationSoftware,Altium Limited,Altium Designer,19.1.8 (144)*
G04*
G04 Layer_Color=0*
%FSLAX25Y25*%
%MOIN*%
G70*
G01*
G75*
%ADD83C,0.00197*%
D83*
X85630Y188724D02*
X93370D01*
X85630Y175276D02*
X93370D01*
X85630D02*
Y188724D01*
X93370Y175276D02*
Y188724D01*
X302130Y48776D02*
Y62224D01*
X309870Y48776D02*
Y62224D01*
X302130D02*
X309870D01*
X302130Y48776D02*
X309870D01*
X282035Y38768D02*
Y72232D01*
X298965D01*
Y38768D02*
Y72232D01*
X282035Y38768D02*
X298965D01*
X74535Y-24232D02*
X91465D01*
Y9232D01*
X74535D02*
X91465D01*
X74535Y-24232D02*
Y9232D01*
X294130Y-72724D02*
X301870D01*
X294130Y-59276D02*
X301870D01*
Y-72724D02*
Y-59276D01*
X294130Y-72724D02*
Y-59276D01*
X305130D02*
X312870D01*
X305130Y-72724D02*
X312870D01*
X305130D02*
Y-59276D01*
X312870Y-72724D02*
Y-59276D01*
X99535Y93268D02*
Y126732D01*
X116465D01*
Y93268D02*
Y126732D01*
X99535Y93268D02*
X116465D01*
X201130Y105224D02*
X208870D01*
X201130Y91776D02*
X208870D01*
X201130D02*
Y105224D01*
X208870Y91776D02*
Y105224D01*
X86630Y116724D02*
X94370D01*
X86630Y103276D02*
X94370D01*
X86630D02*
Y116724D01*
X94370Y103276D02*
Y116724D01*
X164130Y164776D02*
Y178224D01*
X171870Y164776D02*
Y178224D01*
X164130D02*
X171870D01*
X164130Y164776D02*
X171870D01*
X174630D02*
Y178224D01*
X182370Y164776D02*
Y178224D01*
X174630D02*
X182370D01*
X174630Y164776D02*
X182370D01*
X122630Y103776D02*
Y117224D01*
X130370Y103776D02*
Y117224D01*
X122630D02*
X130370D01*
X122630Y103776D02*
X130370D01*
X219035Y82268D02*
Y115732D01*
X235965D01*
Y82268D02*
Y115732D01*
X219035Y82268D02*
X235965D01*
X69870Y-14724D02*
Y-1276D01*
X62130Y-14724D02*
Y-1276D01*
Y-14724D02*
X69870D01*
X62130Y-1276D02*
X69870D01*
X301130Y-44280D02*
Y-30831D01*
X308870Y-44280D02*
Y-30831D01*
X301130D02*
X308870D01*
X301130Y-44280D02*
X308870D01*
X135276Y16130D02*
Y23870D01*
X148724Y16130D02*
Y23870D01*
X135276Y16130D02*
X148724D01*
X135276Y23870D02*
X148724D01*
X135276Y47130D02*
Y54870D01*
X148724Y47130D02*
Y54870D01*
X135276D02*
X148724D01*
X135276Y47130D02*
X148724D01*
X135276Y36463D02*
X148724D01*
X135276Y44203D02*
X148724D01*
Y36463D02*
Y44203D01*
X135276Y36463D02*
Y44203D01*
Y26797D02*
Y34537D01*
X148724Y26797D02*
Y34537D01*
X135276D02*
X148724D01*
X135276Y26797D02*
X148724D01*
X117030Y-29169D02*
X124770D01*
X117030Y-15720D02*
X124770D01*
X117030Y-29169D02*
Y-15720D01*
X124770Y-29169D02*
Y-15720D01*
X113770Y-29169D02*
Y-15720D01*
X106030Y-29169D02*
Y-15720D01*
X113770D01*
X106030Y-29169D02*
X113770D01*
M02*
