G04*
G04 #@! TF.GenerationSoftware,Altium Limited,Altium Designer,19.1.8 (144)*
G04*
G04 Layer_Color=32896*
%FSLAX25Y25*%
%MOIN*%
G70*
G01*
G75*
%ADD10C,0.00787*%
%ADD15C,0.00500*%
D10*
X290500Y37390D02*
X289713D01*
X290500D01*
X289713D01*
X290500D01*
X83000Y-25610D02*
X82213D01*
X83000D01*
X82213D01*
X83000D01*
X108000Y91890D02*
X107213D01*
X108000D01*
X107213D01*
X108000D01*
X227500Y80890D02*
X226713D01*
X227500D01*
X226713D01*
X227500D01*
D15*
X86665Y177669D02*
X92335D01*
X86665Y186331D02*
X92335D01*
X86665Y177669D02*
Y186331D01*
X92335Y177669D02*
Y186331D01*
X86665Y177669D02*
X92335D01*
X86665Y186331D02*
X92335D01*
X86665Y177669D02*
Y186331D01*
X92335Y177669D02*
Y186331D01*
X303165Y51169D02*
Y59831D01*
X308835Y51169D02*
Y59831D01*
X303165Y51169D02*
X308835D01*
X303165Y59831D02*
X308835D01*
X303165Y51169D02*
Y59831D01*
X308835Y51169D02*
Y59831D01*
X303165Y51169D02*
X308835D01*
X303165Y59831D02*
X308835D01*
X283020Y43689D02*
Y67311D01*
X297980D01*
Y43689D02*
Y67311D01*
X283020Y43689D02*
X297980D01*
X283020D02*
Y67311D01*
X297980D01*
Y43689D02*
Y67311D01*
X283020Y43689D02*
X297980D01*
X75520Y-19311D02*
X90480D01*
Y4311D01*
X75520D02*
X90480D01*
X75520Y-19311D02*
Y4311D01*
Y-19311D02*
X90480D01*
Y4311D01*
X75520D02*
X90480D01*
X75520Y-19311D02*
Y4311D01*
X295165Y-61669D02*
X300835D01*
X295165Y-70331D02*
X300835D01*
Y-61669D01*
X295165Y-70331D02*
Y-61669D01*
X300835D01*
X295165Y-70331D02*
X300835D01*
Y-61669D01*
X295165Y-70331D02*
Y-61669D01*
X306165Y-70331D02*
X311835D01*
X306165Y-61669D02*
X311835D01*
X306165Y-70331D02*
Y-61669D01*
X311835Y-70331D02*
Y-61669D01*
X306165Y-70331D02*
X311835D01*
X306165Y-61669D02*
X311835D01*
X306165Y-70331D02*
Y-61669D01*
X311835Y-70331D02*
Y-61669D01*
X100520Y98189D02*
Y121811D01*
X115480D01*
Y98189D02*
Y121811D01*
X100520Y98189D02*
X115480D01*
X100520D02*
Y121811D01*
X115480D01*
Y98189D02*
Y121811D01*
X100520Y98189D02*
X115480D01*
X202165Y94169D02*
X207835D01*
X202165Y102831D02*
X207835D01*
X202165Y94169D02*
Y102831D01*
X207835Y94169D02*
Y102831D01*
X202165Y94169D02*
X207835D01*
X202165Y102831D02*
X207835D01*
X202165Y94169D02*
Y102831D01*
X207835Y94169D02*
Y102831D01*
X87665Y105669D02*
X93335D01*
X87665Y114331D02*
X93335D01*
X87665Y105669D02*
Y114331D01*
X93335Y105669D02*
Y114331D01*
X87665Y105669D02*
X93335D01*
X87665Y114331D02*
X93335D01*
X87665Y105669D02*
Y114331D01*
X93335Y105669D02*
Y114331D01*
X165165Y167169D02*
Y175831D01*
X170835Y167169D02*
Y175831D01*
X165165Y167169D02*
X170835D01*
X165165Y175831D02*
X170835D01*
X165165Y167169D02*
Y175831D01*
X170835Y167169D02*
Y175831D01*
X165165Y167169D02*
X170835D01*
X165165Y175831D02*
X170835D01*
X175665Y167169D02*
Y175831D01*
X181335Y167169D02*
Y175831D01*
X175665Y167169D02*
X181335D01*
X175665Y175831D02*
X181335D01*
X175665Y167169D02*
Y175831D01*
X181335Y167169D02*
Y175831D01*
X175665Y167169D02*
X181335D01*
X175665Y175831D02*
X181335D01*
X123665Y106169D02*
Y114831D01*
X129335Y106169D02*
Y114831D01*
X123665Y106169D02*
X129335D01*
X123665Y114831D02*
X129335D01*
X123665Y106169D02*
Y114831D01*
X129335Y106169D02*
Y114831D01*
X123665Y106169D02*
X129335D01*
X123665Y114831D02*
X129335D01*
X220020Y87189D02*
Y110811D01*
X234980D01*
Y87189D02*
Y110811D01*
X220020Y87189D02*
X234980D01*
X220020D02*
Y110811D01*
X234980D01*
Y87189D02*
Y110811D01*
X220020Y87189D02*
X234980D01*
X68835Y-12331D02*
Y-3669D01*
X63165Y-12331D02*
Y-3669D01*
X68835D01*
X63165Y-12331D02*
X68835D01*
Y-3669D01*
X63165Y-12331D02*
Y-3669D01*
X68835D01*
X63165Y-12331D02*
X68835D01*
X302165Y-41886D02*
Y-33224D01*
X307835Y-41886D02*
Y-33224D01*
X302165Y-41886D02*
X307835D01*
X302165Y-33224D02*
X307835D01*
X302165Y-41886D02*
Y-33224D01*
X307835Y-41886D02*
Y-33224D01*
X302165Y-41886D02*
X307835D01*
X302165Y-33224D02*
X307835D01*
X146331Y17165D02*
Y22835D01*
X137669Y17165D02*
Y22835D01*
Y17165D02*
X146331D01*
X137669Y22835D02*
X146331D01*
Y17165D02*
Y22835D01*
X137669Y17165D02*
Y22835D01*
Y17165D02*
X146331D01*
X137669Y22835D02*
X146331D01*
X146331Y48165D02*
Y53835D01*
X137669Y48165D02*
Y53835D01*
X146331D01*
X137669Y48165D02*
X146331D01*
Y53835D01*
X137669Y48165D02*
Y53835D01*
X146331D01*
X137669Y48165D02*
X146331D01*
X137669Y37499D02*
X146331D01*
X137669Y43168D02*
X146331D01*
X137669Y37499D02*
Y43168D01*
X146331Y37499D02*
Y43168D01*
X137669Y37499D02*
X146331D01*
X137669Y43168D02*
X146331D01*
X137669Y37499D02*
Y43168D01*
X146331Y37499D02*
Y43168D01*
Y27832D02*
Y33501D01*
X137669Y27832D02*
Y33501D01*
X146331D01*
X137669Y27832D02*
X146331D01*
Y33501D01*
X137669Y27832D02*
Y33501D01*
X146331D01*
X137669Y27832D02*
X146331D01*
X118065Y-18114D02*
X123735D01*
X118065Y-26776D02*
X123735D01*
X118065D02*
Y-18114D01*
X123735Y-26776D02*
Y-18114D01*
X118065D02*
X123735D01*
X118065Y-26776D02*
X123735D01*
X118065D02*
Y-18114D01*
X123735Y-26776D02*
Y-18114D01*
X112735Y-26776D02*
Y-18114D01*
X107065Y-26776D02*
Y-18114D01*
Y-26776D02*
X112735D01*
X107065Y-18114D02*
X112735D01*
Y-26776D02*
Y-18114D01*
X107065Y-26776D02*
Y-18114D01*
Y-26776D02*
X112735D01*
X107065Y-18114D02*
X112735D01*
M02*
