G04*
G04 #@! TF.GenerationSoftware,Altium Limited,Altium Designer,19.1.8 (144)*
G04*
G04 Layer_Color=255*
%FSLAX25Y25*%
%MOIN*%
G70*
G01*
G75*
%ADD20R,0.02992X0.12480*%
%ADD21R,0.04724X0.05512*%
G04:AMPARAMS|DCode=22|XSize=55.12mil|YSize=47.24mil|CornerRadius=0mil|HoleSize=0mil|Usage=FLASHONLY|Rotation=135.000|XOffset=0mil|YOffset=0mil|HoleType=Round|Shape=Rectangle|*
%AMROTATEDRECTD22*
4,1,4,0.03619,-0.00278,0.00278,-0.03619,-0.03619,0.00278,-0.00278,0.03619,0.03619,-0.00278,0.0*
%
%ADD22ROTATEDRECTD22*%

%ADD23R,0.05787X0.04567*%
%ADD24R,0.05512X0.04724*%
%ADD25R,0.02362X0.01968*%
%ADD26R,0.03750X0.03500*%
%ADD27R,0.01968X0.02362*%
%ADD28R,0.05800X0.02200*%
%ADD29R,0.25000X0.28898*%
%ADD30R,0.05512X0.03937*%
%ADD31R,0.06900X0.10300*%
%ADD32R,0.05906X0.03543*%
%ADD33R,0.15748X0.15748*%
%ADD34R,0.05807X0.01181*%
%ADD35R,0.01181X0.05807*%
%ADD36R,0.01181X0.03642*%
%ADD37R,0.03150X0.01181*%
%ADD38R,0.04567X0.05787*%
%ADD69C,0.05906*%
%ADD70R,0.05906X0.05906*%
%ADD71C,0.14114*%
%ADD72C,0.20374*%
%ADD73C,0.12600*%
%ADD74R,0.05906X0.05906*%
%ADD75P,0.08352X4X360.0*%
D20*
X162500Y290244D02*
D03*
X142500D02*
D03*
X162500Y310756D02*
D03*
X142500D02*
D03*
D21*
X294543Y82000D02*
D03*
X287457D02*
D03*
X196957Y296500D02*
D03*
X204043D02*
D03*
D22*
X210494Y315494D02*
D03*
X215506Y320505D02*
D03*
D23*
X166500Y348445D02*
D03*
Y341555D02*
D03*
X383000Y221945D02*
D03*
Y215055D02*
D03*
X375000Y93555D02*
D03*
X375000Y100445D02*
D03*
X386000D02*
D03*
X386000Y93555D02*
D03*
X282000Y264945D02*
D03*
Y258055D02*
D03*
X167500Y276445D02*
D03*
Y269555D02*
D03*
X245000Y337945D02*
D03*
Y331055D02*
D03*
X255500Y337945D02*
D03*
Y331055D02*
D03*
X203500Y276945D02*
D03*
Y270055D02*
D03*
X143000Y151555D02*
D03*
Y158445D02*
D03*
X382000Y128890D02*
D03*
Y122000D02*
D03*
X197900Y137110D02*
D03*
Y144000D02*
D03*
X186900D02*
D03*
Y137110D02*
D03*
D24*
X234000Y333457D02*
D03*
Y340543D02*
D03*
X199500Y199457D02*
D03*
Y206543D02*
D03*
X222000Y88957D02*
D03*
Y96043D02*
D03*
X142500Y333043D02*
D03*
Y325957D02*
D03*
X383000Y239543D02*
D03*
Y232457D02*
D03*
X361000Y163543D02*
D03*
Y156457D02*
D03*
X360806Y186543D02*
D03*
Y179457D02*
D03*
X244500Y291543D02*
D03*
Y284457D02*
D03*
D25*
X175969Y323500D02*
D03*
X172031D02*
D03*
X204031Y89000D02*
D03*
X207968D02*
D03*
D26*
X179675Y359500D02*
D03*
X187325D02*
D03*
D27*
X199500Y346969D02*
D03*
Y343032D02*
D03*
X209000Y346969D02*
D03*
Y343032D02*
D03*
X204250Y346969D02*
D03*
Y343032D02*
D03*
D28*
X187900Y347240D02*
D03*
Y339760D02*
D03*
X179100D02*
D03*
Y343500D02*
D03*
Y347240D02*
D03*
D29*
X68500Y337343D02*
D03*
Y27657D02*
D03*
D30*
X367500Y204720D02*
D03*
Y232279D02*
D03*
X160000Y169280D02*
D03*
Y141720D02*
D03*
X185000Y259221D02*
D03*
Y286779D02*
D03*
X304500Y248220D02*
D03*
Y275780D02*
D03*
D31*
X349550Y82000D02*
D03*
X328450D02*
D03*
D32*
X274406Y338417D02*
D03*
Y332512D02*
D03*
Y326606D02*
D03*
Y320701D02*
D03*
Y314795D02*
D03*
Y308890D02*
D03*
Y302984D02*
D03*
Y297079D02*
D03*
Y291173D02*
D03*
X343303D02*
D03*
Y297079D02*
D03*
Y302984D02*
D03*
Y308890D02*
D03*
Y314795D02*
D03*
Y320701D02*
D03*
Y326606D02*
D03*
Y332512D02*
D03*
Y338417D02*
D03*
D33*
X313185Y312394D02*
D03*
D34*
X219409Y160764D02*
D03*
Y158795D02*
D03*
Y156827D02*
D03*
Y154858D02*
D03*
Y152890D02*
D03*
Y150921D02*
D03*
Y148953D02*
D03*
Y146984D02*
D03*
Y145016D02*
D03*
Y143047D02*
D03*
Y141079D02*
D03*
Y139110D02*
D03*
Y137142D02*
D03*
Y135173D02*
D03*
Y133205D02*
D03*
Y131236D02*
D03*
X264591D02*
D03*
Y133205D02*
D03*
Y135173D02*
D03*
Y137142D02*
D03*
Y139110D02*
D03*
Y141079D02*
D03*
Y143047D02*
D03*
Y145016D02*
D03*
Y146984D02*
D03*
Y148953D02*
D03*
Y150921D02*
D03*
Y152890D02*
D03*
Y154858D02*
D03*
Y156827D02*
D03*
Y158795D02*
D03*
Y160764D02*
D03*
D35*
X227236Y123409D02*
D03*
X229205D02*
D03*
X231173D02*
D03*
X233142D02*
D03*
X235110D02*
D03*
X237079D02*
D03*
X239047D02*
D03*
X241016D02*
D03*
X242984D02*
D03*
X244953D02*
D03*
X246921D02*
D03*
X248890D02*
D03*
X250858D02*
D03*
X252827D02*
D03*
X254795D02*
D03*
X256764D02*
D03*
Y168591D02*
D03*
X254795D02*
D03*
X252827D02*
D03*
X250858D02*
D03*
X248890D02*
D03*
X246921D02*
D03*
X244953D02*
D03*
X242984D02*
D03*
X241016D02*
D03*
X239047D02*
D03*
X237079D02*
D03*
X235110D02*
D03*
X233142D02*
D03*
X231173D02*
D03*
X229205D02*
D03*
X227236D02*
D03*
D36*
X372937Y125069D02*
D03*
X370969D02*
D03*
X369000D02*
D03*
X367032D02*
D03*
X365063D02*
D03*
Y114931D02*
D03*
X367032D02*
D03*
X369000D02*
D03*
X370969D02*
D03*
X372937D02*
D03*
D37*
X363980Y121969D02*
D03*
Y120000D02*
D03*
Y118032D02*
D03*
X374020D02*
D03*
Y120000D02*
D03*
Y121969D02*
D03*
D38*
X215555Y183000D02*
D03*
X222445D02*
D03*
X215555Y214000D02*
D03*
X222445D02*
D03*
Y203333D02*
D03*
X215555D02*
D03*
Y193667D02*
D03*
X222445D02*
D03*
D69*
X182500Y199500D02*
D03*
Y189500D02*
D03*
Y179500D02*
D03*
X338500Y108500D02*
D03*
X328500D02*
D03*
X338500Y118500D02*
D03*
X328500D02*
D03*
X338500Y128500D02*
D03*
X328500D02*
D03*
X338500Y138500D02*
D03*
X220000Y338000D02*
D03*
X377500Y342500D02*
D03*
Y332500D02*
D03*
Y322500D02*
D03*
Y312500D02*
D03*
Y292500D02*
D03*
Y302500D02*
D03*
X232500Y238000D02*
D03*
X244500Y222000D02*
D03*
X182500Y242000D02*
D03*
Y232000D02*
D03*
Y222000D02*
D03*
X265000Y97000D02*
D03*
X255000D02*
D03*
X245000D02*
D03*
X257500Y252000D02*
D03*
X338500Y234000D02*
D03*
Y224000D02*
D03*
Y214000D02*
D03*
Y156500D02*
D03*
Y166500D02*
D03*
Y176500D02*
D03*
X210571Y107929D02*
D03*
D70*
X182500Y169500D02*
D03*
X328500Y138500D02*
D03*
X220000Y348000D02*
D03*
X377500Y282500D02*
D03*
X232500Y248000D02*
D03*
X244500Y232000D02*
D03*
X182500Y212000D02*
D03*
X257500Y242000D02*
D03*
X338500Y244000D02*
D03*
Y186500D02*
D03*
D71*
X99996Y307559D02*
D03*
D72*
X37004Y274764D02*
D03*
X99996Y57441D02*
D03*
D73*
X381000Y356000D02*
D03*
X371500Y145000D02*
D03*
X376000Y18000D02*
D03*
X132500Y14500D02*
D03*
X125500Y273000D02*
D03*
X15500Y12500D02*
D03*
X14500Y356500D02*
D03*
D74*
X235000Y97000D02*
D03*
D75*
X203500Y115000D02*
D03*
M02*
