G04*
G04 #@! TF.GenerationSoftware,Altium Limited,Altium Designer,19.1.8 (144)*
G04*
G04 Layer_Color=2752767*
%FSLAX25Y25*%
%MOIN*%
G70*
G01*
G75*
%ADD81C,0.00200*%
%ADD82C,0.00267*%
D81*
X181700Y198700D02*
Y200300D01*
X183300D01*
Y198700D01*
X181700D01*
Y188700D02*
Y190300D01*
X183300D01*
Y188700D01*
X181700D01*
Y178700D02*
Y180300D01*
X183300D01*
Y178700D01*
X181700D01*
Y168700D02*
Y170300D01*
X183300D01*
Y168700D01*
X181700D01*
X337700Y107700D02*
Y109300D01*
X339300D01*
Y107700D01*
X337700D01*
X327700D02*
Y109300D01*
X329300D01*
Y107700D01*
X327700D01*
X337700Y117700D02*
Y119300D01*
X339300D01*
Y117700D01*
X337700D01*
X327700D02*
Y119300D01*
X329300D01*
Y117700D01*
X327700D01*
X337700Y127700D02*
Y129300D01*
X339300D01*
Y127700D01*
X337700D01*
X327700D02*
Y129300D01*
X329300D01*
Y127700D01*
X327700D01*
X337700Y137700D02*
Y139300D01*
X339300D01*
Y137700D01*
X337700D01*
X327700Y137700D02*
Y139300D01*
X329300D01*
Y137700D01*
X327700D01*
X219200Y337200D02*
Y338800D01*
X220800D01*
Y337200D01*
X219200D01*
Y347200D02*
Y348800D01*
X220800D01*
Y347200D01*
X219200D01*
X37004Y273964D02*
X36204Y275564D01*
X37804D01*
X37004Y273964D01*
X99996Y56641D02*
X99196Y58241D01*
X100796D01*
X99996Y56641D01*
X381000Y355200D02*
X381400Y355600D01*
X381800D01*
X381400Y356000D01*
X381800Y356400D01*
X381400D01*
X381000Y356800D01*
X380600Y356400D01*
X380200D01*
X380600Y356000D01*
X380200Y355600D01*
X380600D01*
X381000Y355200D01*
X376700Y341700D02*
Y343300D01*
X378300D01*
Y341700D01*
X376700D01*
Y331700D02*
Y333300D01*
X378300D01*
Y331700D01*
X376700D01*
Y321700D02*
Y323300D01*
X378300D01*
Y321700D01*
X376700D01*
Y311700D02*
Y313300D01*
X378300D01*
Y311700D01*
X376700D01*
Y291700D02*
Y293300D01*
X378300D01*
Y291700D01*
X376700D01*
Y281700D02*
Y283300D01*
X378300D01*
Y281700D01*
X376700D01*
Y301700D02*
Y303300D01*
X378300D01*
Y301700D01*
X376700D01*
X231700Y247200D02*
Y248800D01*
X233300D01*
Y247200D01*
X231700D01*
Y237200D02*
Y238800D01*
X233300D01*
Y237200D01*
X231700D01*
X243700Y231200D02*
Y232800D01*
X245300D01*
Y231200D01*
X243700D01*
Y221200D02*
Y222800D01*
X245300D01*
Y221200D01*
X243700D01*
X371500Y144200D02*
X371900Y144600D01*
X372300D01*
X371900Y145000D01*
X372300Y145400D01*
X371900D01*
X371500Y145800D01*
X371100Y145400D01*
X370700D01*
X371100Y145000D01*
X370700Y144600D01*
X371100D01*
X371500Y144200D01*
X376000Y17200D02*
X376400Y17600D01*
X376800D01*
X376400Y18000D01*
X376800Y18400D01*
X376400D01*
X376000Y18800D01*
X375600Y18400D01*
X375200D01*
X375600Y18000D01*
X375200Y17600D01*
X375600D01*
X376000Y17200D01*
X132500Y13700D02*
X132900Y14100D01*
X133300D01*
X132900Y14500D01*
X133300Y14900D01*
X132900D01*
X132500Y15300D01*
X132100Y14900D01*
X131700D01*
X132100Y14500D01*
X131700Y14100D01*
X132100D01*
X132500Y13700D01*
X125500Y272200D02*
X125900Y272600D01*
X126300D01*
X125900Y273000D01*
X126300Y273400D01*
X125900D01*
X125500Y273800D01*
X125100Y273400D01*
X124700D01*
X125100Y273000D01*
X124700Y272600D01*
X125100D01*
X125500Y272200D01*
X181700Y241200D02*
Y242800D01*
X183300D01*
Y241200D01*
X181700D01*
Y231200D02*
Y232800D01*
X183300D01*
Y231200D01*
X181700D01*
Y221200D02*
Y222800D01*
X183300D01*
Y221200D01*
X181700D01*
Y211200D02*
Y212800D01*
X183300D01*
Y211200D01*
X181700D01*
X264200Y96200D02*
Y97800D01*
X265800D01*
Y96200D01*
X264200D01*
X254200D02*
Y97800D01*
X255800D01*
Y96200D01*
X254200D01*
X244200D02*
Y97800D01*
X245800D01*
Y96200D01*
X244200D01*
X234200D02*
Y97800D01*
X235800D01*
Y96200D01*
X234200D01*
X256700Y241200D02*
Y242800D01*
X258300D01*
Y241200D01*
X256700D01*
Y251200D02*
Y252800D01*
X258300D01*
Y251200D01*
X256700D01*
X337700Y243200D02*
Y244800D01*
X339300D01*
Y243200D01*
X337700D01*
Y233200D02*
Y234800D01*
X339300D01*
Y233200D01*
X337700D01*
Y223200D02*
Y224800D01*
X339300D01*
Y223200D01*
X337700D01*
Y213200D02*
Y214800D01*
X339300D01*
Y213200D01*
X337700D01*
Y155700D02*
Y157300D01*
X339300D01*
Y155700D01*
X337700D01*
Y165700D02*
Y167300D01*
X339300D01*
Y165700D01*
X337700D01*
Y175700D02*
Y177300D01*
X339300D01*
Y175700D01*
X337700D01*
Y185700D02*
Y187300D01*
X339300D01*
Y185700D01*
X337700D01*
X15500Y11700D02*
X15900Y12100D01*
X16300D01*
X15900Y12500D01*
X16300Y12900D01*
X15900D01*
X15500Y13300D01*
X15100Y12900D01*
X14700D01*
X15100Y12500D01*
X14700Y12100D01*
X15100D01*
X15500Y11700D01*
X14500Y355700D02*
X14900Y356100D01*
X15300D01*
X14900Y356500D01*
X15300Y356900D01*
X14900D01*
X14500Y357300D01*
X14100Y356900D01*
X13700D01*
X14100Y356500D01*
X13700Y356100D01*
X14100D01*
X14500Y355700D01*
X209771Y107129D02*
Y108729D01*
X211371D01*
Y107129D01*
X209771D01*
X202700Y114200D02*
Y115800D01*
X204300D01*
Y114200D01*
X202700D01*
X379200Y85200D02*
X379600Y86000D01*
X379200Y86800D01*
X380000Y86400D01*
X380800Y86800D01*
X380400Y86000D01*
X380800Y85200D01*
X380000Y85600D01*
X379200Y85200D01*
X178700Y143200D02*
X179100Y144000D01*
X178700Y144800D01*
X179500Y144400D01*
X180300Y144800D01*
X179900Y144000D01*
X180300Y143200D01*
X179500Y143600D01*
X178700Y143200D01*
X287100Y108600D02*
Y108200D01*
X287900D01*
Y108600D01*
X288300D01*
Y109400D01*
X287900D01*
Y109800D01*
X287100D01*
Y109400D01*
X286700D01*
Y108600D01*
X287100D01*
X360200Y81700D02*
X360600Y82500D01*
X360200Y83300D01*
X361000Y82900D01*
X361800Y83300D01*
X361400Y82500D01*
X361800Y81700D01*
X361000Y82100D01*
X360200Y81700D01*
X378200Y114700D02*
X378600Y115500D01*
X378200Y116300D01*
X379000Y115900D01*
X379800Y116300D01*
X379400Y115500D01*
X379800Y114700D01*
X379000Y115100D01*
X378200Y114700D01*
X179200Y136200D02*
X179600Y137000D01*
X179200Y137800D01*
X180000Y137400D01*
X180800Y137800D01*
X180400Y137000D01*
X180800Y136200D01*
X180000Y136600D01*
X179200Y136200D01*
X269200Y165700D02*
X269600Y166500D01*
X269200Y167300D01*
X270000Y166900D01*
X270800Y167300D01*
X270400Y166500D01*
X270800Y165700D01*
X270000Y166100D01*
X269200Y165700D01*
X258700Y116200D02*
X259100Y117000D01*
X258700Y117800D01*
X259500Y117400D01*
X260300Y117800D01*
X259900Y117000D01*
X260300Y116200D01*
X259500Y116600D01*
X258700Y116200D01*
X229200Y113200D02*
X229600Y114000D01*
X229200Y114800D01*
X230000Y114400D01*
X230800Y114800D01*
X230400Y114000D01*
X230800Y113200D01*
X230000Y113600D01*
X229200Y113200D01*
X209700Y170200D02*
X210100D01*
X210500Y170600D01*
X210900Y170200D01*
X211300D01*
Y170600D01*
X210900Y171000D01*
X211300Y171400D01*
Y171800D01*
X210900D01*
X210500Y171400D01*
X210100Y171800D01*
X209700D01*
Y171400D01*
X210100Y171000D01*
X209700Y170600D01*
Y170200D01*
X204200Y310000D02*
X205000Y310800D01*
X205800Y310000D01*
X205000Y309200D01*
X204200Y310000D01*
X215100Y220600D02*
Y220200D01*
X215900D01*
Y220600D01*
X216300D01*
Y221400D01*
X215900D01*
Y221800D01*
X215100D01*
Y221400D01*
X214700D01*
Y220600D01*
X215100D01*
X352100Y174600D02*
Y174200D01*
X352900D01*
Y174600D01*
X353300D01*
Y175400D01*
X352900D01*
Y175800D01*
X352100D01*
Y175400D01*
X351700D01*
Y174600D01*
X352100D01*
X386200Y247200D02*
X386600Y248000D01*
X386200Y248800D01*
X387000Y248400D01*
X387800Y248800D01*
X387400Y248000D01*
X387800Y247200D01*
X387000Y247600D01*
X386200Y247200D01*
X261700Y333200D02*
X262100Y334000D01*
X261700Y334800D01*
X262500Y334400D01*
X263300Y334800D01*
X262900Y334000D01*
X263300Y333200D01*
X262500Y333600D01*
X261700Y333200D01*
X207100Y338100D02*
Y337700D01*
X207900D01*
Y338100D01*
X208300D01*
Y338900D01*
X207900D01*
Y339300D01*
X207100D01*
Y338900D01*
X206700D01*
Y338100D01*
X207100D01*
X201100D02*
Y337700D01*
X201900D01*
Y338100D01*
X202300D01*
Y338900D01*
X201900D01*
Y339300D01*
X201100D01*
Y338900D01*
X200700D01*
Y338100D01*
X201100D01*
X198700Y212700D02*
X199100Y213500D01*
X198700Y214300D01*
X199500Y213900D01*
X200300Y214300D01*
X199900Y213500D01*
X200300Y212700D01*
X199500Y213100D01*
X198700Y212700D01*
X384200Y114200D02*
X384600Y115000D01*
X384200Y115800D01*
X385000Y115400D01*
X385800Y115800D01*
X385400Y115000D01*
X385800Y114200D01*
X385000Y114600D01*
X384200Y114200D01*
X220600Y108600D02*
Y108200D01*
X221400D01*
Y108600D01*
X221800D01*
Y109400D01*
X221400D01*
Y109800D01*
X220600D01*
Y109400D01*
X220200D01*
Y108600D01*
X220600D01*
X77200Y16667D02*
X78000Y17467D01*
X78800Y16667D01*
X78000Y15867D01*
X77200Y16667D01*
X64533D02*
X65333Y17467D01*
X66133Y16667D01*
X65333Y15867D01*
X64533Y16667D01*
X77200Y23833D02*
X78000Y24633D01*
X78800Y23833D01*
X78000Y23033D01*
X77200Y23833D01*
X70867D02*
X71667Y24633D01*
X72467Y23833D01*
X71667Y23033D01*
X70867Y23833D01*
X64533D02*
X65333Y24633D01*
X66133Y23833D01*
X65333Y23033D01*
X64533Y23833D01*
X58200D02*
X59000Y24633D01*
X59800Y23833D01*
X59000Y23033D01*
X58200Y23833D01*
Y31500D02*
X59000Y32300D01*
X59800Y31500D01*
X59000Y30700D01*
X58200Y31500D01*
X64533D02*
X65333Y32300D01*
X66133Y31500D01*
X65333Y30700D01*
X64533Y31500D01*
X70867D02*
X71667Y32300D01*
X72467Y31500D01*
X71667Y30700D01*
X70867Y31500D01*
X77200D02*
X78000Y32300D01*
X78800Y31500D01*
X78000Y30700D01*
X77200Y31500D01*
X70867Y16667D02*
X71667Y17467D01*
X72467Y16667D01*
X71667Y15867D01*
X70867Y16667D01*
X58200D02*
X59000Y17467D01*
X59800Y16667D01*
X59000Y15867D01*
X58200Y16667D01*
X77200Y39167D02*
X78000Y39967D01*
X78800Y39167D01*
X78000Y38367D01*
X77200Y39167D01*
X70867D02*
X71667Y39967D01*
X72467Y39167D01*
X71667Y38367D01*
X70867Y39167D01*
X64533D02*
X65333Y39967D01*
X66133Y39167D01*
X65333Y38367D01*
X64533Y39167D01*
X58200Y39167D02*
X59000Y39967D01*
X59800Y39167D01*
X59000Y38367D01*
X58200Y39167D01*
X358200Y296200D02*
X358600Y297000D01*
X358200Y297800D01*
X359000Y297400D01*
X359800Y297800D01*
X359400Y297000D01*
X359800Y296200D01*
X359000Y296600D01*
X358200Y296200D01*
X353700Y302200D02*
X354100Y303000D01*
X353700Y303800D01*
X354500Y303400D01*
X355300Y303800D01*
X354900Y303000D01*
X355300Y302200D01*
X354500Y302600D01*
X353700Y302200D01*
X253700Y186700D02*
X254100Y187500D01*
X253700Y188300D01*
X254500Y187900D01*
X255300Y188300D01*
X254900Y187500D01*
X255300Y186700D01*
X254500Y187100D01*
X253700Y186700D01*
X252700Y178200D02*
X253100Y179000D01*
X252700Y179800D01*
X253500Y179400D01*
X254300Y179800D01*
X253900Y179000D01*
X254300Y178200D01*
X253500Y178600D01*
X252700Y178200D01*
X207200Y129200D02*
X207600Y130000D01*
X207200Y130800D01*
X208000Y130400D01*
X208800Y130800D01*
X208400Y130000D01*
X208800Y129200D01*
X208000Y129600D01*
X207200Y129200D01*
X202200Y129700D02*
X202600Y130500D01*
X202200Y131300D01*
X203000Y130900D01*
X203800Y131300D01*
X203400Y130500D01*
X203800Y129700D01*
X203000Y130100D01*
X202200Y129700D01*
X364200Y108700D02*
X364600Y109500D01*
X364200Y110300D01*
X365000Y109900D01*
X365800Y110300D01*
X365400Y109500D01*
X365800Y108700D01*
X365000Y109100D01*
X364200Y108700D01*
X368200Y106700D02*
X368600Y107500D01*
X368200Y108300D01*
X369000Y107900D01*
X369800Y108300D01*
X369400Y107500D01*
X369800Y106700D01*
X369000Y107100D01*
X368200Y106700D01*
X227700Y177200D02*
X228100Y178000D01*
X227700Y178800D01*
X228500Y178400D01*
X229300Y178800D01*
X228900Y178000D01*
X229300Y177200D01*
X228500Y177600D01*
X227700Y177200D01*
X232200Y184700D02*
X232600Y185500D01*
X232200Y186300D01*
X233000Y185900D01*
X233800Y186300D01*
X233400Y185500D01*
X233800Y184700D01*
X233000Y185100D01*
X232200Y184700D01*
X229700Y181200D02*
X230100Y182000D01*
X229700Y182800D01*
X230500Y182400D01*
X231300Y182800D01*
X230900Y182000D01*
X231300Y181200D01*
X230500Y181600D01*
X229700Y181200D01*
X222045Y220545D02*
Y220145D01*
X222845D01*
Y220545D01*
X223245D01*
Y221345D01*
X222845D01*
Y221745D01*
X222045D01*
Y221345D01*
X221645D01*
Y220545D01*
X222045D01*
X318200Y306700D02*
X318600Y307500D01*
X318200Y308300D01*
X319000Y307900D01*
X319800Y308300D01*
X319400Y307500D01*
X319800Y306700D01*
X319000Y307100D01*
X318200Y306700D01*
Y311700D02*
X318600Y312500D01*
X318200Y313300D01*
X319000Y312900D01*
X319800Y313300D01*
X319400Y312500D01*
X319800Y311700D01*
X319000Y312100D01*
X318200Y311700D01*
Y316700D02*
X318600Y317500D01*
X318200Y318300D01*
X319000Y317900D01*
X319800Y318300D01*
X319400Y317500D01*
X319800Y316700D01*
X319000Y317100D01*
X318200Y316700D01*
X306200Y311700D02*
X306600Y312500D01*
X306200Y313300D01*
X307000Y312900D01*
X307800Y313300D01*
X307400Y312500D01*
X307800Y311700D01*
X307000Y312100D01*
X306200Y311700D01*
Y316700D02*
X306600Y317500D01*
X306200Y318300D01*
X307000Y317900D01*
X307800Y318300D01*
X307400Y317500D01*
X307800Y316700D01*
X307000Y317100D01*
X306200Y316700D01*
Y306700D02*
X306600Y307500D01*
X306200Y308300D01*
X307000Y307900D01*
X307800Y308300D01*
X307400Y307500D01*
X307800Y306700D01*
X307000Y307100D01*
X306200Y306700D01*
X314200D02*
X314600Y307500D01*
X314200Y308300D01*
X315000Y307900D01*
X315800Y308300D01*
X315400Y307500D01*
X315800Y306700D01*
X315000Y307100D01*
X314200Y306700D01*
Y311700D02*
X314600Y312500D01*
X314200Y313300D01*
X315000Y312900D01*
X315800Y313300D01*
X315400Y312500D01*
X315800Y311700D01*
X315000Y312100D01*
X314200Y311700D01*
Y316700D02*
X314600Y317500D01*
X314200Y318300D01*
X315000Y317900D01*
X315800Y318300D01*
X315400Y317500D01*
X315800Y316700D01*
X315000Y317100D01*
X314200Y316700D01*
X310200Y306700D02*
X310600Y307500D01*
X310200Y308300D01*
X311000Y307900D01*
X311800Y308300D01*
X311400Y307500D01*
X311800Y306700D01*
X311000Y307100D01*
X310200Y306700D01*
Y311700D02*
X310600Y312500D01*
X310200Y313300D01*
X311000Y312900D01*
X311800Y313300D01*
X311400Y312500D01*
X311800Y311700D01*
X311000Y312100D01*
X310200Y311700D01*
Y316700D02*
X310600Y317500D01*
X310200Y318300D01*
X311000Y317900D01*
X311800Y318300D01*
X311400Y317500D01*
X311800Y316700D01*
X311000Y317100D01*
X310200Y316700D01*
X361200Y130200D02*
X361600Y131000D01*
X361200Y131800D01*
X362000Y131400D01*
X362800Y131800D01*
X362400Y131000D01*
X362800Y130200D01*
X362000Y130600D01*
X361200Y130200D01*
X356200Y115200D02*
X356600Y116000D01*
X356200Y116800D01*
X357000Y116400D01*
X357800Y116800D01*
X357400Y116000D01*
X357800Y115200D01*
X357000Y115600D01*
X356200Y115200D01*
X195100Y92100D02*
Y91700D01*
X195900D01*
Y92100D01*
X196300D01*
Y92900D01*
X195900D01*
Y93300D01*
X195100D01*
Y92900D01*
X194700D01*
Y92100D01*
X195100D01*
X355100Y204100D02*
Y203700D01*
X355900D01*
Y204100D01*
X356300D01*
Y204900D01*
X355900D01*
Y205300D01*
X355100D01*
Y204900D01*
X354700D01*
Y204100D01*
X355100D01*
X176700Y251700D02*
X177100D01*
X177500Y252100D01*
X177900Y251700D01*
X178300D01*
Y252100D01*
X177900Y252500D01*
X178300Y252900D01*
Y253300D01*
X177900D01*
X177500Y252900D01*
X177100Y253300D01*
X176700D01*
Y252900D01*
X177100Y252500D01*
X176700Y252100D01*
Y251700D01*
X255700Y111700D02*
X256100Y112500D01*
X255700Y113300D01*
X256500Y112900D01*
X257300Y113300D01*
X256900Y112500D01*
X257300Y111700D01*
X256500Y112100D01*
X255700Y111700D01*
X372700Y108700D02*
X373100Y109500D01*
X372700Y110300D01*
X373500Y109900D01*
X374300Y110300D01*
X373900Y109500D01*
X374300Y108700D01*
X373500Y109100D01*
X372700Y108700D01*
X164200Y135200D02*
X164600Y136000D01*
X164200Y136800D01*
X165000Y136400D01*
X165800Y136800D01*
X165400Y136000D01*
X165800Y135200D01*
X165000Y135600D01*
X164200Y135200D01*
X266100Y279600D02*
Y279200D01*
X266900D01*
Y279600D01*
X267300D01*
Y280400D01*
X266900D01*
Y280800D01*
X266100D01*
Y280400D01*
X265700D01*
Y279600D01*
X266100D01*
X317700Y247200D02*
X318100Y248000D01*
X317700Y248800D01*
X318500Y248400D01*
X319300Y248800D01*
X318900Y248000D01*
X319300Y247200D01*
X318500Y247600D01*
X317700Y247200D01*
X248100Y274600D02*
Y274200D01*
X248900D01*
Y274600D01*
X249300D01*
Y275400D01*
X248900D01*
Y275800D01*
X248100D01*
Y275400D01*
X247700D01*
Y274600D01*
X248100D01*
D82*
X100796Y307559D02*
X100243Y308320D01*
X99349Y308029D01*
Y307089D01*
X100243Y306798D01*
X100796Y307559D01*
M02*
